<svg xmlns="http://www.w3.org/2000/svg" viewBox="0 0 1400 251" width="1400" height="251">
	<style>
		tspan { white-space:pre }
		.shp0 { fill: #ffffff } 
		.shp1 { fill: #238cc5 } 
		.shp2 { fill: #51b3da } 
		.shp3 { fill: #80d0e1 } 
		.shp4 { fill: #e8f2fb } 
		.shp5 { fill: #3a549d } 
		.shp6 { fill: #416db4 } 
		.shp7 { fill: #4b77bb } 
		.shp8 { fill: #4881c2 } 
	</style>
	<g >
		<g >
			<g >
				<path class="shp0" d="M350 -239L0 -239L0 -729L350 -729L350 -239Z" />
				<path class="shp1" d="M350 -410.62L0 -410.62L0 -239L350 -239L350 -410.62Z" />
				<g >
					<path class="shp1" d="M43.75 -317.11L0 -273.37L0 -239L43.75 -282.74L87.5 -239L87.5 -273.37L43.75 -317.11Z" />
					<path class="shp1" d="M43.75 -351.43L0 -307.69L0 -273.32L43.75 -317.07L87.5 -273.32L87.5 -307.69L43.75 -351.43Z" />
					<path class="shp2" d="M43.75 -385.76L0 -342.02L0 -307.65L43.75 -351.39L87.5 -307.65L87.5 -342.02L43.75 -385.76Z" />
					<path class="shp2" d="M43.75 -420.08L0 -376.34L0 -341.97L43.75 -385.71L87.5 -341.97L87.5 -376.34L43.75 -420.08Z" />
					<path class="shp3" d="M43.75 -454.41L0 -410.66L0 -376.3L43.75 -420.04L87.5 -376.3L87.5 -410.66L43.75 -454.41Z" />
					<path class="shp3" d="M43.75 -488.73L0 -444.99L0 -410.62L43.75 -454.36L87.5 -410.62L87.5 -444.99L43.75 -488.73Z" />
					<path class="shp4" d="M43.75 -523.05L0 -479.31L0 -444.95L43.75 -488.69L87.5 -444.95L87.5 -479.31L43.75 -523.05Z" />
					<path class="shp4" d="M43.75 -557.38L0 -513.64L0 -479.27L43.75 -523.01L87.5 -479.27L87.5 -513.64L43.75 -557.38Z" />
					<path class="shp4" d="M43.75 -591.7L0 -547.96L0 -513.59L43.75 -557.34L87.5 -513.59L87.5 -547.96L43.75 -591.7Z" />
					<path class="shp4" d="M43.75 -626.03L0 -582.29L0 -547.92L43.75 -591.66L87.5 -547.92L87.5 -582.29L43.75 -626.03Z" />
					<path class="shp4" d="M43.75 -660.35L0 -616.61L0 -582.24L43.75 -625.98L87.5 -582.24L87.5 -616.61L43.75 -660.35Z" />
					<path class="shp0" d="M43.75 -694.68L0 -650.93L0 -616.57L43.75 -660.31L87.5 -616.57L87.5 -650.93L43.75 -694.68Z" />
					<path class="shp0" d="M43.75 -729L0 -685.26L0 -650.89L43.75 -694.63L87.5 -650.89L87.5 -685.26L43.75 -729Z" />
				</g>
				<g >
					<path class="shp1" d="M131.25 -317.11L87.5 -273.37L87.5 -239L131.25 -282.74L175 -239L175 -273.37L131.25 -317.11Z" />
					<path class="shp2" d="M131.25 -351.43L87.5 -307.69L87.5 -273.32L131.25 -317.07L175 -273.32L175 -307.69L131.25 -351.43Z" />
					<path class="shp2" d="M131.25 -385.76L87.5 -342.02L87.5 -307.65L131.25 -351.39L175 -307.65L175 -342.02L131.25 -385.76Z" />
					<path class="shp3" d="M131.25 -420.08L87.5 -376.34L87.5 -341.97L131.25 -385.71L175 -341.97L175 -376.34L131.25 -420.08Z" />
					<path class="shp3" d="M131.25 -454.41L87.5 -410.66L87.5 -376.3L131.25 -420.04L175 -376.3L175 -410.66L131.25 -454.41Z" />
					<path class="shp4" d="M131.25 -488.73L87.5 -444.99L87.5 -410.62L131.25 -454.36L175 -410.62L175 -444.99L131.25 -488.73Z" />
					<path class="shp4" d="M131.25 -523.05L87.5 -479.31L87.5 -444.95L131.25 -488.69L175 -444.95L175 -479.31L131.25 -523.05Z" />
					<path class="shp0" d="M131.25 -557.38L87.5 -513.64L87.5 -479.27L131.25 -523.01L175 -479.27L175 -513.64L131.25 -557.38Z" />
					<path class="shp0" d="M131.25 -591.7L87.5 -547.96L87.5 -513.59L131.25 -557.34L175 -513.59L175 -547.96L131.25 -591.7Z" />
					<path class="shp0" d="M131.25 -626.03L87.5 -582.29L87.5 -547.92L131.25 -591.66L175 -547.92L175 -582.29L131.25 -626.03Z" />
					<path class="shp0" d="M131.25 -660.35L87.5 -616.61L87.5 -582.24L131.25 -625.98L175 -582.24L175 -616.61L131.25 -660.35Z" />
					<path class="shp0" d="M131.25 -694.68L87.5 -650.93L87.5 -616.57L131.25 -660.31L175 -616.57L175 -650.93L131.25 -694.68Z" />
					<path class="shp0" d="M131.25 -729L87.5 -685.26L87.5 -650.89L131.25 -694.63L175 -650.89L175 -685.26L131.25 -729Z" />
				</g>
				<g >
					<path class="shp1" d="M218.75 -317.11L175 -273.37L175 -239L218.75 -282.74L262.5 -239L262.5 -273.37L218.75 -317.11Z" />
					<path class="shp1" d="M218.75 -351.43L175 -307.69L175 -273.32L218.75 -317.07L262.5 -273.32L262.5 -307.69L218.75 -351.43Z" />
					<path class="shp1" d="M218.75 -385.76L175 -342.02L175 -307.65L218.75 -351.39L262.5 -307.65L262.5 -342.02L218.75 -385.76Z" />
					<path class="shp2" d="M218.75 -420.08L175 -376.34L175 -341.97L218.75 -385.71L262.5 -341.97L262.5 -376.34L218.75 -420.08Z" />
					<path class="shp2" d="M218.75 -454.41L175 -410.66L175 -376.3L218.75 -420.04L262.5 -376.3L262.5 -410.66L218.75 -454.41Z" />
					<path class="shp3" d="M218.75 -488.73L175 -444.99L175 -410.62L218.75 -454.36L262.5 -410.62L262.5 -444.99L218.75 -488.73Z" />
					<path class="shp3" d="M218.75 -523.05L175 -479.31L175 -444.95L218.75 -488.69L262.5 -444.95L262.5 -479.31L218.75 -523.05Z" />
					<path class="shp4" d="M218.75 -557.38L175 -513.64L175 -479.27L218.75 -523.01L262.5 -479.27L262.5 -513.64L218.75 -557.38Z" />
					<path class="shp4" d="M218.75 -591.7L175 -547.96L175 -513.59L218.75 -557.34L262.5 -513.59L262.5 -547.96L218.75 -591.7Z" />
					<path class="shp0" d="M218.75 -626.03L175 -582.29L175 -547.92L218.75 -591.66L262.5 -547.92L262.5 -582.29L218.75 -626.03Z" />
					<path class="shp0" d="M218.75 -660.35L175 -616.61L175 -582.24L218.75 -625.98L262.5 -582.24L262.5 -616.61L218.75 -660.35Z" />
					<path class="shp0" d="M218.75 -694.68L175 -650.93L175 -616.57L218.75 -660.31L262.5 -616.57L262.5 -650.93L218.75 -694.68Z" />
					<path class="shp0" d="M218.75 -729L175 -685.26L175 -650.89L218.75 -694.63L262.5 -650.89L262.5 -685.26L218.75 -729Z" />
				</g>
				<g >
					<path class="shp1" d="M306.25 -317.11L262.5 -273.37L262.5 -239L306.25 -282.74L350 -239L350 -273.37L306.25 -317.11Z" />
					<path class="shp1" d="M306.25 -351.43L262.5 -307.69L262.5 -273.32L306.25 -317.07L350 -273.32L350 -307.69L306.25 -351.43Z" />
					<path class="shp1" d="M306.25 -385.76L262.5 -342.02L262.5 -307.65L306.25 -351.39L350 -307.65L350 -342.02L306.25 -385.76Z" />
					<path class="shp1" d="M306.25 -420.08L262.5 -376.34L262.5 -341.97L306.25 -385.71L350 -341.97L350 -376.34L306.25 -420.08Z" />
					<path class="shp2" d="M306.25 -454.41L262.5 -410.66L262.5 -376.3L306.25 -420.04L350 -376.3L350 -410.66L306.25 -454.41Z" />
					<path class="shp2" d="M306.25 -488.73L262.5 -444.99L262.5 -410.62L306.25 -454.36L350 -410.62L350 -444.99L306.25 -488.73Z" />
					<path class="shp3" d="M306.25 -523.05L262.5 -479.31L262.5 -444.95L306.25 -488.69L350 -444.95L350 -479.31L306.25 -523.05Z" />
					<path class="shp3" d="M306.25 -557.38L262.5 -513.64L262.5 -479.27L306.25 -523.01L350 -479.27L350 -513.64L306.25 -557.38Z" />
					<path class="shp4" d="M306.25 -591.7L262.5 -547.96L262.5 -513.59L306.25 -557.34L350 -513.59L350 -547.96L306.25 -591.7Z" />
					<path class="shp4" d="M306.25 -626.03L262.5 -582.29L262.5 -547.92L306.25 -591.66L350 -547.92L350 -582.29L306.25 -626.03Z" />
					<path class="shp0" d="M306.25 -660.35L262.5 -616.61L262.5 -582.24L306.25 -625.98L350 -582.24L350 -616.61L306.25 -660.35Z" />
					<path class="shp0" d="M306.25 -694.68L262.5 -650.93L262.5 -616.57L306.25 -660.31L350 -616.57L350 -650.93L306.25 -694.68Z" />
					<path class="shp0" d="M306.25 -729L262.5 -685.26L262.5 -650.89L306.25 -694.63L350 -650.89L350 -685.26L306.25 -729Z" />
				</g>
				<path class="shp0" d="M0 251L0 -239L350 -239" />
				<path class="shp5" d="M350 251L0 251L0 -239L350 -239L350 251Z" />
				<path class="shp1" d="M350 10.73L0 10.73L0 -239L350 -239L350 10.73Z" />
				<g >
					<path class="shp5" d="M43.75 172.89L0 216.63L0 251L43.75 207.26L87.5 251L87.5 216.63L43.75 172.89Z" />
					<path class="shp6" d="M43.75 138.57L0 182.31L0 216.68L43.75 172.93L87.5 216.68L87.5 182.31L43.75 138.57Z" />
					<path class="shp6" d="M43.75 104.24L0 147.98L0 182.35L43.75 138.61L87.5 182.35L87.5 147.98L43.75 104.24Z" />
					<path class="shp6" d="M43.75 69.92L0 113.66L0 148.03L43.75 104.29L87.5 148.03L87.5 113.66L43.75 69.92Z" />
					<path class="shp6" d="M43.75 35.59L0 79.34L0 113.7L43.75 69.96L87.5 113.7L87.5 79.34L43.75 35.59Z" />
					<path class="shp7" d="M43.75 1.27L0 45.01L0 79.38L43.75 35.64L87.5 79.38L87.5 45.01L43.75 1.27Z" />
					<path class="shp7" d="M43.75 -33.05L0 10.69L0 45.05L43.75 1.31L87.5 45.05L87.5 10.69L43.75 -33.05Z" />
					<path class="shp7" d="M43.75 -67.38L0 -23.64L0 10.73L43.75 -33.01L87.5 10.73L87.5 -23.64L43.75 -67.38Z" />
					<path class="shp7" d="M43.75 -101.7L0 -57.96L0 -23.59L43.75 -67.34L87.5 -23.59L87.5 -57.96L43.75 -101.7Z" />
					<path class="shp7" d="M43.75 -136.03L0 -92.29L0 -57.92L43.75 -101.66L87.5 -57.92L87.5 -92.29L43.75 -136.03Z" />
					<path class="shp8" d="M43.75 -170.35L0 -126.61L0 -92.24L43.75 -135.98L87.5 -92.24L87.5 -126.61L43.75 -170.35Z" />
					<path class="shp8" d="M43.75 -204.68L0 -160.93L0 -126.57L43.75 -170.31L87.5 -126.57L87.5 -160.93L43.75 -204.68Z" />
					<path class="shp8" d="M43.75 -239L0 -195.26L0 -160.89L43.75 -204.63L87.5 -160.89L87.5 -195.26L43.75 -239Z" />
				</g>
				<g >
					<path class="shp5" d="M131.25 172.89L87.5 216.63L87.5 251L131.25 207.26L175 251L175 216.63L131.25 172.89Z" />
					<path class="shp5" d="M131.25 138.57L87.5 182.31L87.5 216.68L131.25 172.93L175 216.68L175 182.31L131.25 138.57Z" />
					<path class="shp6" d="M131.25 104.24L87.5 147.98L87.5 182.35L131.25 138.61L175 182.35L175 147.98L131.25 104.24Z" />
					<path class="shp6" d="M131.25 69.92L87.5 113.66L87.5 148.03L131.25 104.29L175 148.03L175 113.66L131.25 69.92Z" />
					<path class="shp6" d="M131.25 35.59L87.5 79.34L87.5 113.7L131.25 69.96L175 113.7L175 79.34L131.25 35.59Z" />
					<path class="shp6" d="M131.25 1.27L87.5 45.01L87.5 79.38L131.25 35.64L175 79.38L175 45.01L131.25 1.27Z" />
					<path class="shp6" d="M131.25 -33.05L87.5 10.69L87.5 45.05L131.25 1.31L175 45.05L175 10.69L131.25 -33.05Z" />
					<path class="shp6" d="M131.25 -67.38L87.5 -23.64L87.5 10.73L131.25 -33.01L175 10.73L175 -23.64L131.25 -67.38Z" />
					<path class="shp6" d="M131.25 -101.7L87.5 -57.96L87.5 -23.59L131.25 -67.34L175 -23.59L175 -57.96L131.25 -101.7Z" />
					<path class="shp6" d="M131.25 -136.03L87.5 -92.29L87.5 -57.92L131.25 -101.66L175 -57.92L175 -92.29L131.25 -136.03Z" />
					<path class="shp7" d="M131.25 -170.35L87.5 -126.61L87.5 -92.24L131.25 -135.98L175 -92.24L175 -126.61L131.25 -170.35Z" />
					<path class="shp7" d="M131.25 -204.68L87.5 -160.93L87.5 -126.57L131.25 -170.31L175 -126.57L175 -160.93L131.25 -204.68Z" />
					<path class="shp8" d="M131.25 -239L87.5 -195.26L87.5 -160.89L131.25 -204.63L175 -160.89L175 -195.26L131.25 -239Z" />
				</g>
				<g >
					<path class="shp5" d="M218.75 172.89L175 216.63L175 251L218.75 207.26L262.5 251L262.5 216.63L218.75 172.89Z" />
					<path class="shp5" d="M218.75 138.57L175 182.31L175 216.68L218.75 172.93L262.5 216.68L262.5 182.31L218.75 138.57Z" />
					<path class="shp5" d="M218.75 104.24L175 147.98L175 182.35L218.75 138.61L262.5 182.35L262.5 147.98L218.75 104.24Z" />
					<path class="shp6" d="M218.75 69.92L175 113.66L175 148.03L218.75 104.29L262.5 148.03L262.5 113.66L218.75 69.92Z" />
					<path class="shp6" d="M218.75 35.59L175 79.34L175 113.7L218.75 69.96L262.5 113.7L262.5 79.34L218.75 35.59Z" />
					<path class="shp6" d="M218.75 1.27L175 45.01L175 79.38L218.75 35.64L262.5 79.38L262.5 45.01L218.75 1.27Z" />
					<path class="shp6" d="M218.75 -33.05L175 10.69L175 45.05L218.75 1.31L262.5 45.05L262.5 10.69L218.75 -33.05Z" />
					<path class="shp6" d="M218.75 -67.38L175 -23.64L175 10.73L218.75 -33.01L262.5 10.73L262.5 -23.64L218.75 -67.38Z" />
					<path class="shp7" d="M218.75 -101.7L175 -57.96L175 -23.59L218.75 -67.34L262.5 -23.59L262.5 -57.96L218.75 -101.7Z" />
					<path class="shp7" d="M218.75 -136.03L175 -92.29L175 -57.92L218.75 -101.66L262.5 -57.92L262.5 -92.29L218.75 -136.03Z" />
					<path class="shp7" d="M218.75 -170.35L175 -126.61L175 -92.24L218.75 -135.98L262.5 -92.24L262.5 -126.61L218.75 -170.35Z" />
					<path class="shp8" d="M218.75 -204.68L175 -160.93L175 -126.57L218.75 -170.31L262.5 -126.57L262.5 -160.93L218.75 -204.68Z" />
					<path class="shp1" d="M218.75 -239L175 -195.26L175 -160.89L218.75 -204.63L262.5 -160.89L262.5 -195.26L218.75 -239Z" />
				</g>
				<g >
					<path class="shp5" d="M306.25 172.89L262.5 216.63L262.5 251L306.25 207.26L350 251L350 216.63L306.25 172.89Z" />
					<path class="shp5" d="M306.25 138.57L262.5 182.31L262.5 216.68L306.25 172.93L350 216.68L350 182.31L306.25 138.57Z" />
					<path class="shp6" d="M306.25 104.24L262.5 147.98L262.5 182.35L306.25 138.61L350 182.35L350 147.98L306.25 104.24Z" />
					<path class="shp6" d="M306.25 69.92L262.5 113.66L262.5 148.03L306.25 104.29L350 148.03L350 113.66L306.25 69.92Z" />
					<path class="shp6" d="M306.25 35.59L262.5 79.34L262.5 113.7L306.25 69.96L350 113.7L350 79.34L306.25 35.59Z" />
					<path class="shp6" d="M306.25 1.27L262.5 45.01L262.5 79.38L306.25 35.64L350 79.38L350 45.01L306.25 1.27Z" />
					<path class="shp6" d="M306.25 -33.05L262.5 10.69L262.5 45.05L306.25 1.31L350 45.05L350 10.69L306.25 -33.05Z" />
					<path class="shp6" d="M306.25 -67.38L262.5 -23.64L262.5 10.73L306.25 -33.01L350 10.73L350 -23.64L306.25 -67.38Z" />
					<path class="shp6" d="M306.25 -101.7L262.5 -57.96L262.5 -23.59L306.25 -67.34L350 -23.59L350 -57.96L306.25 -101.7Z" />
					<path class="shp7" d="M306.25 -136.03L262.5 -92.29L262.5 -57.92L306.25 -101.66L350 -57.92L350 -92.29L306.25 -136.03Z" />
					<path class="shp7" d="M306.25 -170.35L262.5 -126.61L262.5 -92.24L306.25 -135.98L350 -92.24L350 -126.61L306.25 -170.35Z" />
					<path class="shp8" d="M306.25 -204.68L262.5 -160.93L262.5 -126.57L306.25 -170.31L350 -126.57L350 -160.93L306.25 -204.68Z" />
					<path class="shp8" d="M306.25 -239L262.5 -195.26L262.5 -160.89L306.25 -204.63L350 -160.89L350 -195.26L306.25 -239Z" />
				</g>
				<path class="shp0" d="M131.25 -523.05L131.25 -204.68L131.25 -204.68L140.54 -195.39L149.83 -204.68L149.83 -523.05L131.25 -523.05Z" />
				<path class="shp0" d="M218.75 -591.7L218.75 -333.11L218.75 -333.11L228.04 -323.82L237.33 -333.11L237.33 -591.7L218.75 -591.7Z" />
				<path class="shp4" d="M68.92 -466.84L68.92 -148.46L78.21 -139.17L87.5 -148.46L87.5 -148.46L87.5 -466.84L68.92 -466.84Z" />
				<path class="shp4" d="M287.67 -557.38L287.67 -239L296.96 -229.71L306.25 -239L306.25 -239L306.25 -557.38L287.67 -557.38Z" />
				<path class="shp4" d="M296.96 -179.56L287.67 -170.27L296.96 -160.98L306.25 -170.27L296.96 -179.56Z" />
				<path class="shp4" d="M131.25 -151.43L106.38 -126.57L131.25 -101.7L156.12 -126.57L131.25 -151.43Z" />
				<path class="shp4" d="M296.96 -210.81L287.67 -201.52L296.96 -192.23L306.25 -201.52L296.96 -210.81Z" />
				<path class="shp0" d="M228.04 -276.6L218.75 -267.31L228.04 -258.02L237.33 -267.31L228.04 -276.6Z" />
				<path class="shp0" d="M197.37 -253.94L181.42 -237.98L197.38 -222.03L213.33 -237.98L197.37 -253.94Z" />
			</g>
			<g >
				<path class="shp0" d="M700 -239L350 -239L350 -729L700 -729L700 -239Z" />
				<path class="shp1" d="M700 -410.62L350 -410.62L350 -239L700 -239L700 -410.62Z" />
				<g >
					<path class="shp1" d="M393.75 -317.11L350 -273.37L350 -239L393.75 -282.74L437.5 -239L437.5 -273.37L393.75 -317.11Z" />
					<path class="shp1" d="M393.75 -351.43L350 -307.69L350 -273.32L393.75 -317.07L437.5 -273.32L437.5 -307.69L393.75 -351.43Z" />
					<path class="shp2" d="M393.75 -385.76L350 -342.02L350 -307.65L393.75 -351.39L437.5 -307.65L437.5 -342.02L393.75 -385.76Z" />
					<path class="shp2" d="M393.75 -420.08L350 -376.34L350 -341.97L393.75 -385.71L437.5 -341.97L437.5 -376.34L393.75 -420.08Z" />
					<path class="shp3" d="M393.75 -454.41L350 -410.66L350 -376.3L393.75 -420.04L437.5 -376.3L437.5 -410.66L393.75 -454.41Z" />
					<path class="shp3" d="M393.75 -488.73L350 -444.99L350 -410.62L393.75 -454.36L437.5 -410.62L437.5 -444.99L393.75 -488.73Z" />
					<path class="shp4" d="M393.75 -523.05L350 -479.31L350 -444.95L393.75 -488.69L437.5 -444.95L437.5 -479.31L393.75 -523.05Z" />
					<path class="shp4" d="M393.75 -557.38L350 -513.64L350 -479.27L393.75 -523.01L437.5 -479.27L437.5 -513.64L393.75 -557.38Z" />
					<path class="shp4" d="M393.75 -591.7L350 -547.96L350 -513.59L393.75 -557.34L437.5 -513.59L437.5 -547.96L393.75 -591.7Z" />
					<path class="shp4" d="M393.75 -626.03L350 -582.29L350 -547.92L393.75 -591.66L437.5 -547.92L437.5 -582.29L393.75 -626.03Z" />
					<path class="shp4" d="M393.75 -660.35L350 -616.61L350 -582.24L393.75 -625.98L437.5 -582.24L437.5 -616.61L393.75 -660.35Z" />
					<path class="shp0" d="M393.75 -694.68L350 -650.93L350 -616.57L393.75 -660.31L437.5 -616.57L437.5 -650.93L393.75 -694.68Z" />
					<path class="shp0" d="M393.75 -729L350 -685.26L350 -650.89L393.75 -694.63L437.5 -650.89L437.5 -685.26L393.75 -729Z" />
				</g>
				<g >
					<path class="shp1" d="M481.25 -317.11L437.5 -273.37L437.5 -239L481.25 -282.74L525 -239L525 -273.37L481.25 -317.11Z" />
					<path class="shp2" d="M481.25 -351.43L437.5 -307.69L437.5 -273.32L481.25 -317.07L525 -273.32L525 -307.69L481.25 -351.43Z" />
					<path class="shp2" d="M481.25 -385.76L437.5 -342.02L437.5 -307.65L481.25 -351.39L525 -307.65L525 -342.02L481.25 -385.76Z" />
					<path class="shp3" d="M481.25 -420.08L437.5 -376.34L437.5 -341.97L481.25 -385.71L525 -341.97L525 -376.34L481.25 -420.08Z" />
					<path class="shp3" d="M481.25 -454.41L437.5 -410.66L437.5 -376.3L481.25 -420.04L525 -376.3L525 -410.66L481.25 -454.41Z" />
					<path class="shp4" d="M481.25 -488.73L437.5 -444.99L437.5 -410.62L481.25 -454.36L525 -410.62L525 -444.99L481.25 -488.73Z" />
					<path class="shp4" d="M481.25 -523.05L437.5 -479.31L437.5 -444.95L481.25 -488.69L525 -444.95L525 -479.31L481.25 -523.05Z" />
					<path class="shp0" d="M481.25 -557.38L437.5 -513.64L437.5 -479.27L481.25 -523.01L525 -479.27L525 -513.64L481.25 -557.38Z" />
					<path class="shp0" d="M481.25 -591.7L437.5 -547.96L437.5 -513.59L481.25 -557.34L525 -513.59L525 -547.96L481.25 -591.7Z" />
					<path class="shp0" d="M481.25 -626.03L437.5 -582.29L437.5 -547.92L481.25 -591.66L525 -547.92L525 -582.29L481.25 -626.03Z" />
					<path class="shp0" d="M481.25 -660.35L437.5 -616.61L437.5 -582.24L481.25 -625.98L525 -582.24L525 -616.61L481.25 -660.35Z" />
					<path class="shp0" d="M481.25 -694.68L437.5 -650.93L437.5 -616.57L481.25 -660.31L525 -616.57L525 -650.93L481.25 -694.68Z" />
					<path class="shp0" d="M481.25 -729L437.5 -685.26L437.5 -650.89L481.25 -694.63L525 -650.89L525 -685.26L481.25 -729Z" />
				</g>
				<g >
					<path class="shp1" d="M568.75 -317.11L525 -273.37L525 -239L568.75 -282.74L612.5 -239L612.5 -273.37L568.75 -317.11Z" />
					<path class="shp1" d="M568.75 -351.43L525 -307.69L525 -273.32L568.75 -317.07L612.5 -273.32L612.5 -307.69L568.75 -351.43Z" />
					<path class="shp1" d="M568.75 -385.76L525 -342.02L525 -307.65L568.75 -351.39L612.5 -307.65L612.5 -342.02L568.75 -385.76Z" />
					<path class="shp2" d="M568.75 -420.08L525 -376.34L525 -341.97L568.75 -385.71L612.5 -341.97L612.5 -376.34L568.75 -420.08Z" />
					<path class="shp2" d="M568.75 -454.41L525 -410.66L525 -376.3L568.75 -420.04L612.5 -376.3L612.5 -410.66L568.75 -454.41Z" />
					<path class="shp3" d="M568.75 -488.73L525 -444.99L525 -410.62L568.75 -454.36L612.5 -410.62L612.5 -444.99L568.75 -488.73Z" />
					<path class="shp3" d="M568.75 -523.05L525 -479.31L525 -444.95L568.75 -488.69L612.5 -444.95L612.5 -479.31L568.75 -523.05Z" />
					<path class="shp4" d="M568.75 -557.38L525 -513.64L525 -479.27L568.75 -523.01L612.5 -479.27L612.5 -513.64L568.75 -557.38Z" />
					<path class="shp4" d="M568.75 -591.7L525 -547.96L525 -513.59L568.75 -557.34L612.5 -513.59L612.5 -547.96L568.75 -591.7Z" />
					<path class="shp0" d="M568.75 -626.03L525 -582.29L525 -547.92L568.75 -591.66L612.5 -547.92L612.5 -582.29L568.75 -626.03Z" />
					<path class="shp0" d="M568.75 -660.35L525 -616.61L525 -582.24L568.75 -625.98L612.5 -582.24L612.5 -616.61L568.75 -660.35Z" />
					<path class="shp0" d="M568.75 -694.68L525 -650.93L525 -616.57L568.75 -660.31L612.5 -616.57L612.5 -650.93L568.75 -694.68Z" />
					<path class="shp0" d="M568.75 -729L525 -685.26L525 -650.89L568.75 -694.63L612.5 -650.89L612.5 -685.26L568.75 -729Z" />
				</g>
				<g >
					<path class="shp1" d="M656.25 -317.11L612.5 -273.37L612.5 -239L656.25 -282.74L700 -239L700 -273.37L656.25 -317.11Z" />
					<path class="shp1" d="M656.25 -351.43L612.5 -307.69L612.5 -273.32L656.25 -317.07L700 -273.32L700 -307.69L656.25 -351.43Z" />
					<path class="shp1" d="M656.25 -385.76L612.5 -342.02L612.5 -307.65L656.25 -351.39L700 -307.65L700 -342.02L656.25 -385.76Z" />
					<path class="shp1" d="M656.25 -420.08L612.5 -376.34L612.5 -341.97L656.25 -385.71L700 -341.97L700 -376.34L656.25 -420.08Z" />
					<path class="shp2" d="M656.25 -454.41L612.5 -410.66L612.5 -376.3L656.25 -420.04L700 -376.3L700 -410.66L656.25 -454.41Z" />
					<path class="shp2" d="M656.25 -488.73L612.5 -444.99L612.5 -410.62L656.25 -454.36L700 -410.62L700 -444.99L656.25 -488.73Z" />
					<path class="shp3" d="M656.25 -523.05L612.5 -479.31L612.5 -444.95L656.25 -488.69L700 -444.95L700 -479.31L656.25 -523.05Z" />
					<path class="shp3" d="M656.25 -557.38L612.5 -513.64L612.5 -479.27L656.25 -523.01L700 -479.27L700 -513.64L656.25 -557.38Z" />
					<path class="shp4" d="M656.25 -591.7L612.5 -547.96L612.5 -513.59L656.25 -557.34L700 -513.59L700 -547.96L656.25 -591.7Z" />
					<path class="shp4" d="M656.25 -626.03L612.5 -582.29L612.5 -547.92L656.25 -591.66L700 -547.92L700 -582.29L656.25 -626.03Z" />
					<path class="shp0" d="M656.25 -660.35L612.5 -616.61L612.5 -582.24L656.25 -625.98L700 -582.24L700 -616.61L656.25 -660.35Z" />
					<path class="shp0" d="M656.25 -694.68L612.5 -650.93L612.5 -616.57L656.25 -660.31L700 -616.57L700 -650.93L656.25 -694.68Z" />
					<path class="shp0" d="M656.25 -729L612.5 -685.26L612.5 -650.89L656.25 -694.63L700 -650.89L700 -685.26L656.25 -729Z" />
				</g>
				<path class="shp0" d="M350 251L350 -239L700 -239" />
				<path class="shp5" d="M700 251L350 251L350 -239L700 -239L700 251Z" />
				<path class="shp1" d="M700 10.73L350 10.73L350 -239L700 -239L700 10.73Z" />
				<g >
					<path class="shp5" d="M393.75 172.89L350 216.63L350 251L393.75 207.26L437.5 251L437.5 216.63L393.75 172.89Z" />
					<path class="shp6" d="M393.75 138.57L350 182.31L350 216.68L393.75 172.93L437.5 216.68L437.5 182.31L393.75 138.57Z" />
					<path class="shp6" d="M393.75 104.24L350 147.98L350 182.35L393.75 138.61L437.5 182.35L437.5 147.98L393.75 104.24Z" />
					<path class="shp6" d="M393.75 69.92L350 113.66L350 148.03L393.75 104.29L437.5 148.03L437.5 113.66L393.75 69.92Z" />
					<path class="shp6" d="M393.75 35.59L350 79.34L350 113.7L393.75 69.96L437.5 113.7L437.5 79.34L393.75 35.59Z" />
					<path class="shp7" d="M393.75 1.27L350 45.01L350 79.38L393.75 35.64L437.5 79.38L437.5 45.01L393.75 1.27Z" />
					<path class="shp7" d="M393.75 -33.05L350 10.69L350 45.05L393.75 1.31L437.5 45.05L437.5 10.69L393.75 -33.05Z" />
					<path class="shp7" d="M393.75 -67.38L350 -23.64L350 10.73L393.75 -33.01L437.5 10.73L437.5 -23.64L393.75 -67.38Z" />
					<path class="shp7" d="M393.75 -101.7L350 -57.96L350 -23.59L393.75 -67.34L437.5 -23.59L437.5 -57.96L393.75 -101.7Z" />
					<path class="shp7" d="M393.75 -136.03L350 -92.29L350 -57.92L393.75 -101.66L437.5 -57.92L437.5 -92.29L393.75 -136.03Z" />
					<path class="shp8" d="M393.75 -170.35L350 -126.61L350 -92.24L393.75 -135.98L437.5 -92.24L437.5 -126.61L393.75 -170.35Z" />
					<path class="shp8" d="M393.75 -204.68L350 -160.93L350 -126.57L393.75 -170.31L437.5 -126.57L437.5 -160.93L393.75 -204.68Z" />
					<path class="shp8" d="M393.75 -239L350 -195.26L350 -160.89L393.75 -204.63L437.5 -160.89L437.5 -195.26L393.75 -239Z" />
				</g>
				<g >
					<path class="shp5" d="M481.25 172.89L437.5 216.63L437.5 251L481.25 207.26L525 251L525 216.63L481.25 172.89Z" />
					<path class="shp5" d="M481.25 138.57L437.5 182.31L437.5 216.68L481.25 172.93L525 216.68L525 182.31L481.25 138.57Z" />
					<path class="shp6" d="M481.25 104.24L437.5 147.98L437.5 182.35L481.25 138.61L525 182.35L525 147.98L481.25 104.24Z" />
					<path class="shp6" d="M481.25 69.92L437.5 113.66L437.5 148.03L481.25 104.29L525 148.03L525 113.66L481.25 69.92Z" />
					<path class="shp6" d="M481.25 35.59L437.5 79.34L437.5 113.7L481.25 69.96L525 113.7L525 79.34L481.25 35.59Z" />
					<path class="shp6" d="M481.25 1.27L437.5 45.01L437.5 79.38L481.25 35.64L525 79.38L525 45.01L481.25 1.27Z" />
					<path class="shp6" d="M481.25 -33.05L437.5 10.69L437.5 45.05L481.25 1.31L525 45.05L525 10.69L481.25 -33.05Z" />
					<path class="shp6" d="M481.25 -67.38L437.5 -23.64L437.5 10.73L481.25 -33.01L525 10.73L525 -23.64L481.25 -67.38Z" />
					<path class="shp6" d="M481.25 -101.7L437.5 -57.96L437.5 -23.59L481.25 -67.34L525 -23.59L525 -57.96L481.25 -101.7Z" />
					<path class="shp6" d="M481.25 -136.03L437.5 -92.29L437.5 -57.92L481.25 -101.66L525 -57.92L525 -92.29L481.25 -136.03Z" />
					<path class="shp7" d="M481.25 -170.35L437.5 -126.61L437.5 -92.24L481.25 -135.98L525 -92.24L525 -126.61L481.25 -170.35Z" />
					<path class="shp7" d="M481.25 -204.68L437.5 -160.93L437.5 -126.57L481.25 -170.31L525 -126.57L525 -160.93L481.25 -204.68Z" />
					<path class="shp8" d="M481.25 -239L437.5 -195.26L437.5 -160.89L481.25 -204.63L525 -160.89L525 -195.26L481.25 -239Z" />
				</g>
				<g >
					<path class="shp5" d="M568.75 172.89L525 216.63L525 251L568.75 207.26L612.5 251L612.5 216.63L568.75 172.89Z" />
					<path class="shp5" d="M568.75 138.57L525 182.31L525 216.68L568.75 172.93L612.5 216.68L612.5 182.31L568.75 138.57Z" />
					<path class="shp5" d="M568.75 104.24L525 147.98L525 182.35L568.75 138.61L612.5 182.35L612.5 147.98L568.75 104.24Z" />
					<path class="shp6" d="M568.75 69.92L525 113.66L525 148.03L568.75 104.29L612.5 148.03L612.5 113.66L568.75 69.92Z" />
					<path class="shp6" d="M568.75 35.59L525 79.34L525 113.7L568.75 69.96L612.5 113.7L612.5 79.34L568.75 35.59Z" />
					<path class="shp6" d="M568.75 1.27L525 45.01L525 79.38L568.75 35.64L612.5 79.38L612.5 45.01L568.75 1.27Z" />
					<path class="shp6" d="M568.75 -33.05L525 10.69L525 45.05L568.75 1.31L612.5 45.05L612.5 10.69L568.75 -33.05Z" />
					<path class="shp6" d="M568.75 -67.38L525 -23.64L525 10.73L568.75 -33.01L612.5 10.73L612.5 -23.64L568.75 -67.38Z" />
					<path class="shp7" d="M568.75 -101.7L525 -57.96L525 -23.59L568.75 -67.34L612.5 -23.59L612.5 -57.96L568.75 -101.7Z" />
					<path class="shp7" d="M568.75 -136.03L525 -92.29L525 -57.92L568.75 -101.66L612.5 -57.92L612.5 -92.29L568.75 -136.03Z" />
					<path class="shp7" d="M568.75 -170.35L525 -126.61L525 -92.24L568.75 -135.98L612.5 -92.24L612.5 -126.61L568.75 -170.35Z" />
					<path class="shp8" d="M568.75 -204.68L525 -160.93L525 -126.57L568.75 -170.31L612.5 -126.57L612.5 -160.93L568.75 -204.68Z" />
					<path class="shp1" d="M568.75 -239L525 -195.26L525 -160.89L568.75 -204.63L612.5 -160.89L612.5 -195.26L568.75 -239Z" />
				</g>
				<g >
					<path class="shp5" d="M656.25 172.89L612.5 216.63L612.5 251L656.25 207.26L700 251L700 216.63L656.25 172.89Z" />
					<path class="shp5" d="M656.25 138.57L612.5 182.31L612.5 216.68L656.25 172.93L700 216.68L700 182.31L656.25 138.57Z" />
					<path class="shp6" d="M656.25 104.24L612.5 147.98L612.5 182.35L656.25 138.61L700 182.35L700 147.98L656.25 104.24Z" />
					<path class="shp6" d="M656.25 69.92L612.5 113.66L612.5 148.03L656.25 104.29L700 148.03L700 113.66L656.25 69.92Z" />
					<path class="shp6" d="M656.25 35.59L612.5 79.34L612.5 113.7L656.25 69.96L700 113.7L700 79.34L656.25 35.59Z" />
					<path class="shp6" d="M656.25 1.27L612.5 45.01L612.5 79.38L656.25 35.64L700 79.38L700 45.01L656.25 1.27Z" />
					<path class="shp6" d="M656.25 -33.05L612.5 10.69L612.5 45.05L656.25 1.31L700 45.05L700 10.69L656.25 -33.05Z" />
					<path class="shp6" d="M656.25 -67.38L612.5 -23.64L612.5 10.73L656.25 -33.01L700 10.73L700 -23.64L656.25 -67.38Z" />
					<path class="shp6" d="M656.25 -101.7L612.5 -57.96L612.5 -23.59L656.25 -67.34L700 -23.59L700 -57.96L656.25 -101.7Z" />
					<path class="shp7" d="M656.25 -136.03L612.5 -92.29L612.5 -57.92L656.25 -101.66L700 -57.92L700 -92.29L656.25 -136.03Z" />
					<path class="shp7" d="M656.25 -170.35L612.5 -126.61L612.5 -92.24L656.25 -135.98L700 -92.24L700 -126.61L656.25 -170.35Z" />
					<path class="shp8" d="M656.25 -204.68L612.5 -160.93L612.5 -126.57L656.25 -170.31L700 -126.57L700 -160.93L656.25 -204.68Z" />
					<path class="shp8" d="M656.25 -239L612.5 -195.26L612.5 -160.89L656.25 -204.63L700 -160.89L700 -195.26L656.25 -239Z" />
				</g>
				<path class="shp0" d="M481.25 -523.05L481.25 -204.68L481.25 -204.68L490.54 -195.39L499.83 -204.68L499.83 -523.05L481.25 -523.05Z" />
				<path class="shp0" d="M568.75 -591.7L568.75 -333.11L568.75 -333.11L578.04 -323.82L587.33 -333.11L587.33 -591.7L568.75 -591.7Z" />
				<path class="shp4" d="M418.92 -466.84L418.92 -148.46L428.21 -139.17L437.5 -148.46L437.5 -148.46L437.5 -466.84L418.92 -466.84Z" />
				<path class="shp4" d="M637.67 -557.38L637.67 -239L646.96 -229.71L656.25 -239L656.25 -239L656.25 -557.38L637.67 -557.38Z" />
				<path class="shp4" d="M646.96 -179.56L637.67 -170.27L646.96 -160.98L656.25 -170.27L646.96 -179.56Z" />
				<path class="shp4" d="M481.25 -151.43L456.38 -126.57L481.25 -101.7L506.12 -126.57L481.25 -151.43Z" />
				<path class="shp4" d="M646.96 -210.81L637.67 -201.52L646.96 -192.23L656.25 -201.52L646.96 -210.81Z" />
				<path class="shp0" d="M578.04 -276.6L568.75 -267.31L578.04 -258.02L587.33 -267.31L578.04 -276.6Z" />
				<path class="shp0" d="M547.37 -253.94L531.42 -237.98L547.38 -222.03L563.33 -237.98L547.37 -253.94Z" />
			</g>
			<g >
				<path class="shp0" d="M1050 -239L700 -239L700 -729L1050 -729L1050 -239Z" />
				<path class="shp1" d="M1050 -410.62L700 -410.62L700 -239L1050 -239L1050 -410.62Z" />
				<g >
					<path class="shp1" d="M743.75 -317.11L700 -273.37L700 -239L743.75 -282.74L787.5 -239L787.5 -273.37L743.75 -317.11Z" />
					<path class="shp1" d="M743.75 -351.43L700 -307.69L700 -273.32L743.75 -317.07L787.5 -273.32L787.5 -307.69L743.75 -351.43Z" />
					<path class="shp2" d="M743.75 -385.76L700 -342.02L700 -307.65L743.75 -351.39L787.5 -307.65L787.5 -342.02L743.75 -385.76Z" />
					<path class="shp2" d="M743.75 -420.08L700 -376.34L700 -341.97L743.75 -385.71L787.5 -341.97L787.5 -376.34L743.75 -420.08Z" />
					<path class="shp3" d="M743.75 -454.41L700 -410.66L700 -376.3L743.75 -420.04L787.5 -376.3L787.5 -410.66L743.75 -454.41Z" />
					<path class="shp3" d="M743.75 -488.73L700 -444.99L700 -410.62L743.75 -454.36L787.5 -410.62L787.5 -444.99L743.75 -488.73Z" />
					<path class="shp4" d="M743.75 -523.05L700 -479.31L700 -444.95L743.75 -488.69L787.5 -444.95L787.5 -479.31L743.75 -523.05Z" />
					<path class="shp4" d="M743.75 -557.38L700 -513.64L700 -479.27L743.75 -523.01L787.5 -479.27L787.5 -513.64L743.75 -557.38Z" />
					<path class="shp4" d="M743.75 -591.7L700 -547.96L700 -513.59L743.75 -557.34L787.5 -513.59L787.5 -547.96L743.75 -591.7Z" />
					<path class="shp4" d="M743.75 -626.03L700 -582.29L700 -547.92L743.75 -591.66L787.5 -547.92L787.5 -582.29L743.75 -626.03Z" />
					<path class="shp4" d="M743.75 -660.35L700 -616.61L700 -582.24L743.75 -625.98L787.5 -582.24L787.5 -616.61L743.75 -660.35Z" />
					<path class="shp0" d="M743.75 -694.68L700 -650.93L700 -616.57L743.75 -660.31L787.5 -616.57L787.5 -650.93L743.75 -694.68Z" />
					<path class="shp0" d="M743.75 -729L700 -685.26L700 -650.89L743.75 -694.63L787.5 -650.89L787.5 -685.26L743.75 -729Z" />
				</g>
				<g >
					<path class="shp1" d="M831.25 -317.11L787.5 -273.37L787.5 -239L831.25 -282.74L875 -239L875 -273.37L831.25 -317.11Z" />
					<path class="shp2" d="M831.25 -351.43L787.5 -307.69L787.5 -273.32L831.25 -317.07L875 -273.32L875 -307.69L831.25 -351.43Z" />
					<path class="shp2" d="M831.25 -385.76L787.5 -342.02L787.5 -307.65L831.25 -351.39L875 -307.65L875 -342.02L831.25 -385.76Z" />
					<path class="shp3" d="M831.25 -420.08L787.5 -376.34L787.5 -341.97L831.25 -385.71L875 -341.97L875 -376.34L831.25 -420.08Z" />
					<path class="shp3" d="M831.25 -454.41L787.5 -410.66L787.5 -376.3L831.25 -420.04L875 -376.3L875 -410.66L831.25 -454.41Z" />
					<path class="shp4" d="M831.25 -488.73L787.5 -444.99L787.5 -410.62L831.25 -454.36L875 -410.62L875 -444.99L831.25 -488.73Z" />
					<path class="shp4" d="M831.25 -523.05L787.5 -479.31L787.5 -444.95L831.25 -488.69L875 -444.95L875 -479.31L831.25 -523.05Z" />
					<path class="shp0" d="M831.25 -557.38L787.5 -513.64L787.5 -479.27L831.25 -523.01L875 -479.27L875 -513.64L831.25 -557.38Z" />
					<path class="shp0" d="M831.25 -591.7L787.5 -547.96L787.5 -513.59L831.25 -557.34L875 -513.59L875 -547.96L831.25 -591.7Z" />
					<path class="shp0" d="M831.25 -626.03L787.5 -582.29L787.5 -547.92L831.25 -591.66L875 -547.92L875 -582.29L831.25 -626.03Z" />
					<path class="shp0" d="M831.25 -660.35L787.5 -616.61L787.5 -582.24L831.25 -625.98L875 -582.24L875 -616.61L831.25 -660.35Z" />
					<path class="shp0" d="M831.25 -694.68L787.5 -650.93L787.5 -616.57L831.25 -660.31L875 -616.57L875 -650.93L831.25 -694.68Z" />
					<path class="shp0" d="M831.25 -729L787.5 -685.26L787.5 -650.89L831.25 -694.63L875 -650.89L875 -685.26L831.25 -729Z" />
				</g>
				<g >
					<path class="shp1" d="M918.75 -317.11L875 -273.37L875 -239L918.75 -282.74L962.5 -239L962.5 -273.37L918.75 -317.11Z" />
					<path class="shp1" d="M918.75 -351.43L875 -307.69L875 -273.32L918.75 -317.07L962.5 -273.32L962.5 -307.69L918.75 -351.43Z" />
					<path class="shp1" d="M918.75 -385.76L875 -342.02L875 -307.65L918.75 -351.39L962.5 -307.65L962.5 -342.02L918.75 -385.76Z" />
					<path class="shp2" d="M918.75 -420.08L875 -376.34L875 -341.97L918.75 -385.71L962.5 -341.97L962.5 -376.34L918.75 -420.08Z" />
					<path class="shp2" d="M918.75 -454.41L875 -410.66L875 -376.3L918.75 -420.04L962.5 -376.3L962.5 -410.66L918.75 -454.41Z" />
					<path class="shp3" d="M918.75 -488.73L875 -444.99L875 -410.62L918.75 -454.36L962.5 -410.62L962.5 -444.99L918.75 -488.73Z" />
					<path class="shp3" d="M918.75 -523.05L875 -479.31L875 -444.95L918.75 -488.69L962.5 -444.95L962.5 -479.31L918.75 -523.05Z" />
					<path class="shp4" d="M918.75 -557.38L875 -513.64L875 -479.27L918.75 -523.01L962.5 -479.27L962.5 -513.64L918.75 -557.38Z" />
					<path class="shp4" d="M918.75 -591.7L875 -547.96L875 -513.59L918.75 -557.34L962.5 -513.59L962.5 -547.96L918.75 -591.7Z" />
					<path class="shp0" d="M918.75 -626.03L875 -582.29L875 -547.92L918.75 -591.66L962.5 -547.92L962.5 -582.29L918.75 -626.03Z" />
					<path class="shp0" d="M918.75 -660.35L875 -616.61L875 -582.24L918.75 -625.98L962.5 -582.24L962.5 -616.61L918.75 -660.35Z" />
					<path class="shp0" d="M918.75 -694.68L875 -650.93L875 -616.57L918.75 -660.31L962.5 -616.57L962.5 -650.93L918.75 -694.68Z" />
					<path class="shp0" d="M918.75 -729L875 -685.26L875 -650.89L918.75 -694.63L962.5 -650.89L962.5 -685.26L918.75 -729Z" />
				</g>
				<g >
					<path class="shp1" d="M1006.25 -317.11L962.5 -273.37L962.5 -239L1006.25 -282.74L1050 -239L1050 -273.37L1006.25 -317.11Z" />
					<path class="shp1" d="M1006.25 -351.43L962.5 -307.69L962.5 -273.32L1006.25 -317.07L1050 -273.32L1050 -307.69L1006.25 -351.43Z" />
					<path class="shp1" d="M1006.25 -385.76L962.5 -342.02L962.5 -307.65L1006.25 -351.39L1050 -307.65L1050 -342.02L1006.25 -385.76Z" />
					<path class="shp1" d="M1006.25 -420.08L962.5 -376.34L962.5 -341.97L1006.25 -385.71L1050 -341.97L1050 -376.34L1006.25 -420.08Z" />
					<path class="shp2" d="M1006.25 -454.41L962.5 -410.66L962.5 -376.3L1006.25 -420.04L1050 -376.3L1050 -410.66L1006.25 -454.41Z" />
					<path class="shp2" d="M1006.25 -488.73L962.5 -444.99L962.5 -410.62L1006.25 -454.36L1050 -410.62L1050 -444.99L1006.25 -488.73Z" />
					<path class="shp3" d="M1006.25 -523.05L962.5 -479.31L962.5 -444.95L1006.25 -488.69L1050 -444.95L1050 -479.31L1006.25 -523.05Z" />
					<path class="shp3" d="M1006.25 -557.38L962.5 -513.64L962.5 -479.27L1006.25 -523.01L1050 -479.27L1050 -513.64L1006.25 -557.38Z" />
					<path class="shp4" d="M1006.25 -591.7L962.5 -547.96L962.5 -513.59L1006.25 -557.34L1050 -513.59L1050 -547.96L1006.25 -591.7Z" />
					<path class="shp4" d="M1006.25 -626.03L962.5 -582.29L962.5 -547.92L1006.25 -591.66L1050 -547.92L1050 -582.29L1006.25 -626.03Z" />
					<path class="shp0" d="M1006.25 -660.35L962.5 -616.61L962.5 -582.24L1006.25 -625.98L1050 -582.24L1050 -616.61L1006.25 -660.35Z" />
					<path class="shp0" d="M1006.25 -694.68L962.5 -650.93L962.5 -616.57L1006.25 -660.31L1050 -616.57L1050 -650.93L1006.25 -694.68Z" />
					<path class="shp0" d="M1006.25 -729L962.5 -685.26L962.5 -650.89L1006.25 -694.63L1050 -650.89L1050 -685.26L1006.25 -729Z" />
				</g>
				<path class="shp0" d="M700 251L700 -239L1050 -239" />
				<path class="shp5" d="M1050 251L700 251L700 -239L1050 -239L1050 251Z" />
				<path class="shp1" d="M1050 10.73L700 10.73L700 -239L1050 -239L1050 10.73Z" />
				<g >
					<path class="shp5" d="M743.75 172.89L700 216.63L700 251L743.75 207.26L787.5 251L787.5 216.63L743.75 172.89Z" />
					<path class="shp6" d="M743.75 138.57L700 182.31L700 216.68L743.75 172.93L787.5 216.68L787.5 182.31L743.75 138.57Z" />
					<path class="shp6" d="M743.75 104.24L700 147.98L700 182.35L743.75 138.61L787.5 182.35L787.5 147.98L743.75 104.24Z" />
					<path class="shp6" d="M743.75 69.92L700 113.66L700 148.03L743.75 104.29L787.5 148.03L787.5 113.66L743.75 69.92Z" />
					<path class="shp6" d="M743.75 35.59L700 79.34L700 113.7L743.75 69.96L787.5 113.7L787.5 79.34L743.75 35.59Z" />
					<path class="shp7" d="M743.75 1.27L700 45.01L700 79.38L743.75 35.64L787.5 79.38L787.5 45.01L743.75 1.27Z" />
					<path class="shp7" d="M743.75 -33.05L700 10.69L700 45.05L743.75 1.31L787.5 45.05L787.5 10.69L743.75 -33.05Z" />
					<path class="shp7" d="M743.75 -67.38L700 -23.64L700 10.73L743.75 -33.01L787.5 10.73L787.5 -23.64L743.75 -67.38Z" />
					<path class="shp7" d="M743.75 -101.7L700 -57.96L700 -23.59L743.75 -67.34L787.5 -23.59L787.5 -57.96L743.75 -101.7Z" />
					<path class="shp7" d="M743.75 -136.03L700 -92.29L700 -57.92L743.75 -101.66L787.5 -57.92L787.5 -92.29L743.75 -136.03Z" />
					<path class="shp8" d="M743.75 -170.35L700 -126.61L700 -92.24L743.75 -135.98L787.5 -92.24L787.5 -126.61L743.75 -170.35Z" />
					<path class="shp8" d="M743.75 -204.68L700 -160.93L700 -126.57L743.75 -170.31L787.5 -126.57L787.5 -160.93L743.75 -204.68Z" />
					<path class="shp8" d="M743.75 -239L700 -195.26L700 -160.89L743.75 -204.63L787.5 -160.89L787.5 -195.26L743.75 -239Z" />
				</g>
				<g >
					<path class="shp5" d="M831.25 172.89L787.5 216.63L787.5 251L831.25 207.26L875 251L875 216.63L831.25 172.89Z" />
					<path class="shp5" d="M831.25 138.57L787.5 182.31L787.5 216.68L831.25 172.93L875 216.68L875 182.31L831.25 138.57Z" />
					<path class="shp6" d="M831.25 104.24L787.5 147.98L787.5 182.35L831.25 138.61L875 182.35L875 147.98L831.25 104.24Z" />
					<path class="shp6" d="M831.25 69.92L787.5 113.66L787.5 148.03L831.25 104.29L875 148.03L875 113.66L831.25 69.92Z" />
					<path class="shp6" d="M831.25 35.59L787.5 79.34L787.5 113.7L831.25 69.96L875 113.7L875 79.34L831.25 35.59Z" />
					<path class="shp6" d="M831.25 1.27L787.5 45.01L787.5 79.38L831.25 35.64L875 79.38L875 45.01L831.25 1.27Z" />
					<path class="shp6" d="M831.25 -33.05L787.5 10.69L787.5 45.05L831.25 1.31L875 45.05L875 10.69L831.25 -33.05Z" />
					<path class="shp6" d="M831.25 -67.38L787.5 -23.64L787.5 10.73L831.25 -33.01L875 10.73L875 -23.64L831.25 -67.38Z" />
					<path class="shp6" d="M831.25 -101.7L787.5 -57.96L787.5 -23.59L831.25 -67.34L875 -23.59L875 -57.96L831.25 -101.7Z" />
					<path class="shp6" d="M831.25 -136.03L787.5 -92.29L787.5 -57.92L831.25 -101.66L875 -57.92L875 -92.29L831.25 -136.03Z" />
					<path class="shp7" d="M831.25 -170.35L787.5 -126.61L787.5 -92.24L831.25 -135.98L875 -92.24L875 -126.61L831.25 -170.35Z" />
					<path class="shp7" d="M831.25 -204.68L787.5 -160.93L787.5 -126.57L831.25 -170.31L875 -126.57L875 -160.93L831.25 -204.68Z" />
					<path class="shp8" d="M831.25 -239L787.5 -195.26L787.5 -160.89L831.25 -204.63L875 -160.89L875 -195.26L831.25 -239Z" />
				</g>
				<g >
					<path class="shp5" d="M918.75 172.89L875 216.63L875 251L918.75 207.26L962.5 251L962.5 216.63L918.75 172.89Z" />
					<path class="shp5" d="M918.75 138.57L875 182.31L875 216.68L918.75 172.93L962.5 216.68L962.5 182.31L918.75 138.57Z" />
					<path class="shp5" d="M918.75 104.24L875 147.98L875 182.35L918.75 138.61L962.5 182.35L962.5 147.98L918.75 104.24Z" />
					<path class="shp6" d="M918.75 69.92L875 113.66L875 148.03L918.75 104.29L962.5 148.03L962.5 113.66L918.75 69.92Z" />
					<path class="shp6" d="M918.75 35.59L875 79.34L875 113.7L918.75 69.96L962.5 113.7L962.5 79.34L918.75 35.59Z" />
					<path class="shp6" d="M918.75 1.27L875 45.01L875 79.38L918.75 35.64L962.5 79.38L962.5 45.01L918.75 1.27Z" />
					<path class="shp6" d="M918.75 -33.05L875 10.69L875 45.05L918.75 1.31L962.5 45.05L962.5 10.69L918.75 -33.05Z" />
					<path class="shp6" d="M918.75 -67.38L875 -23.64L875 10.73L918.75 -33.01L962.5 10.73L962.5 -23.64L918.75 -67.38Z" />
					<path class="shp7" d="M918.75 -101.7L875 -57.96L875 -23.59L918.75 -67.34L962.5 -23.59L962.5 -57.96L918.75 -101.7Z" />
					<path class="shp7" d="M918.75 -136.03L875 -92.29L875 -57.92L918.75 -101.66L962.5 -57.92L962.5 -92.29L918.75 -136.03Z" />
					<path class="shp7" d="M918.75 -170.35L875 -126.61L875 -92.24L918.75 -135.98L962.5 -92.24L962.5 -126.61L918.75 -170.35Z" />
					<path class="shp8" d="M918.75 -204.68L875 -160.93L875 -126.57L918.75 -170.31L962.5 -126.57L962.5 -160.93L918.75 -204.68Z" />
					<path class="shp1" d="M918.75 -239L875 -195.26L875 -160.89L918.75 -204.63L962.5 -160.89L962.5 -195.26L918.75 -239Z" />
				</g>
				<g >
					<path class="shp5" d="M1006.25 172.89L962.5 216.63L962.5 251L1006.25 207.26L1050 251L1050 216.63L1006.25 172.89Z" />
					<path class="shp5" d="M1006.25 138.57L962.5 182.31L962.5 216.68L1006.25 172.93L1050 216.68L1050 182.31L1006.25 138.57Z" />
					<path class="shp6" d="M1006.25 104.24L962.5 147.98L962.5 182.35L1006.25 138.61L1050 182.35L1050 147.98L1006.25 104.24Z" />
					<path class="shp6" d="M1006.25 69.92L962.5 113.66L962.5 148.03L1006.25 104.29L1050 148.03L1050 113.66L1006.25 69.92Z" />
					<path class="shp6" d="M1006.25 35.59L962.5 79.34L962.5 113.7L1006.25 69.96L1050 113.7L1050 79.34L1006.25 35.59Z" />
					<path class="shp6" d="M1006.25 1.27L962.5 45.01L962.5 79.38L1006.25 35.64L1050 79.38L1050 45.01L1006.25 1.27Z" />
					<path class="shp6" d="M1006.25 -33.05L962.5 10.69L962.5 45.05L1006.25 1.31L1050 45.05L1050 10.69L1006.25 -33.05Z" />
					<path class="shp6" d="M1006.25 -67.38L962.5 -23.64L962.5 10.73L1006.25 -33.01L1050 10.73L1050 -23.64L1006.25 -67.38Z" />
					<path class="shp6" d="M1006.25 -101.7L962.5 -57.96L962.5 -23.59L1006.25 -67.34L1050 -23.59L1050 -57.96L1006.25 -101.7Z" />
					<path class="shp7" d="M1006.25 -136.03L962.5 -92.29L962.5 -57.92L1006.25 -101.66L1050 -57.92L1050 -92.29L1006.25 -136.03Z" />
					<path class="shp7" d="M1006.25 -170.35L962.5 -126.61L962.5 -92.24L1006.25 -135.98L1050 -92.24L1050 -126.61L1006.25 -170.35Z" />
					<path class="shp8" d="M1006.25 -204.68L962.5 -160.93L962.5 -126.57L1006.25 -170.31L1050 -126.57L1050 -160.93L1006.25 -204.68Z" />
					<path class="shp8" d="M1006.25 -239L962.5 -195.26L962.5 -160.89L1006.25 -204.63L1050 -160.89L1050 -195.26L1006.25 -239Z" />
				</g>
				<path class="shp0" d="M831.25 -523.05L831.25 -204.68L831.25 -204.68L840.54 -195.39L849.83 -204.68L849.83 -523.05L831.25 -523.05Z" />
				<path class="shp0" d="M918.75 -591.7L918.75 -333.11L918.75 -333.11L928.04 -323.82L937.33 -333.11L937.33 -591.7L918.75 -591.7Z" />
				<path class="shp4" d="M768.92 -466.84L768.92 -148.46L778.21 -139.17L787.5 -148.46L787.5 -148.46L787.5 -466.84L768.92 -466.84Z" />
				<path class="shp4" d="M987.67 -557.38L987.67 -239L996.96 -229.71L1006.25 -239L1006.25 -239L1006.25 -557.38L987.67 -557.38Z" />
				<path class="shp4" d="M996.96 -179.56L987.67 -170.27L996.96 -160.98L1006.25 -170.27L996.96 -179.56Z" />
				<path class="shp4" d="M831.25 -151.43L806.38 -126.57L831.25 -101.7L856.12 -126.57L831.25 -151.43Z" />
				<path class="shp4" d="M996.96 -210.81L987.67 -201.52L996.96 -192.23L1006.25 -201.52L996.96 -210.81Z" />
				<path class="shp0" d="M928.04 -276.6L918.75 -267.31L928.04 -258.02L937.33 -267.31L928.04 -276.6Z" />
				<path class="shp0" d="M897.37 -253.94L881.42 -237.98L897.38 -222.03L913.33 -237.98L897.37 -253.94Z" />
			</g>
			<g >
				<path class="shp0" d="M1400 -239L1050 -239L1050 -729L1400 -729L1400 -239Z" />
				<path class="shp1" d="M1400 -410.62L1050 -410.62L1050 -239L1400 -239L1400 -410.62Z" />
				<g >
					<path class="shp1" d="M1093.75 -317.11L1050 -273.37L1050 -239L1093.75 -282.74L1137.5 -239L1137.5 -273.37L1093.75 -317.11Z" />
					<path class="shp1" d="M1093.75 -351.43L1050 -307.69L1050 -273.32L1093.75 -317.07L1137.5 -273.32L1137.5 -307.69L1093.75 -351.43Z" />
					<path class="shp2" d="M1093.75 -385.76L1050 -342.02L1050 -307.65L1093.75 -351.39L1137.5 -307.65L1137.5 -342.02L1093.75 -385.76Z" />
					<path class="shp2" d="M1093.75 -420.08L1050 -376.34L1050 -341.97L1093.75 -385.71L1137.5 -341.97L1137.5 -376.34L1093.75 -420.08Z" />
					<path class="shp3" d="M1093.75 -454.41L1050 -410.66L1050 -376.3L1093.75 -420.04L1137.5 -376.3L1137.5 -410.66L1093.75 -454.41Z" />
					<path class="shp3" d="M1093.75 -488.73L1050 -444.99L1050 -410.62L1093.75 -454.36L1137.5 -410.62L1137.5 -444.99L1093.75 -488.73Z" />
					<path class="shp4" d="M1093.75 -523.05L1050 -479.31L1050 -444.95L1093.75 -488.69L1137.5 -444.95L1137.5 -479.31L1093.75 -523.05Z" />
					<path class="shp4" d="M1093.75 -557.38L1050 -513.64L1050 -479.27L1093.75 -523.01L1137.5 -479.27L1137.5 -513.64L1093.75 -557.38Z" />
					<path class="shp4" d="M1093.75 -591.7L1050 -547.96L1050 -513.59L1093.75 -557.34L1137.5 -513.59L1137.5 -547.96L1093.75 -591.7Z" />
					<path class="shp4" d="M1093.75 -626.03L1050 -582.29L1050 -547.92L1093.75 -591.66L1137.5 -547.92L1137.5 -582.29L1093.75 -626.03Z" />
					<path class="shp4" d="M1093.75 -660.35L1050 -616.61L1050 -582.24L1093.75 -625.98L1137.5 -582.24L1137.5 -616.61L1093.75 -660.35Z" />
					<path class="shp0" d="M1093.75 -694.68L1050 -650.93L1050 -616.57L1093.75 -660.31L1137.5 -616.57L1137.5 -650.93L1093.75 -694.68Z" />
					<path class="shp0" d="M1093.75 -729L1050 -685.26L1050 -650.89L1093.75 -694.63L1137.5 -650.89L1137.5 -685.26L1093.75 -729Z" />
				</g>
				<g >
					<path class="shp1" d="M1181.25 -317.11L1137.5 -273.37L1137.5 -239L1181.25 -282.74L1225 -239L1225 -273.37L1181.25 -317.11Z" />
					<path class="shp2" d="M1181.25 -351.43L1137.5 -307.69L1137.5 -273.32L1181.25 -317.07L1225 -273.32L1225 -307.69L1181.25 -351.43Z" />
					<path class="shp2" d="M1181.25 -385.76L1137.5 -342.02L1137.5 -307.65L1181.25 -351.39L1225 -307.65L1225 -342.02L1181.25 -385.76Z" />
					<path class="shp3" d="M1181.25 -420.08L1137.5 -376.34L1137.5 -341.97L1181.25 -385.71L1225 -341.97L1225 -376.34L1181.25 -420.08Z" />
					<path class="shp3" d="M1181.25 -454.41L1137.5 -410.66L1137.5 -376.3L1181.25 -420.04L1225 -376.3L1225 -410.66L1181.25 -454.41Z" />
					<path class="shp4" d="M1181.25 -488.73L1137.5 -444.99L1137.5 -410.62L1181.25 -454.36L1225 -410.62L1225 -444.99L1181.25 -488.73Z" />
					<path class="shp4" d="M1181.25 -523.05L1137.5 -479.31L1137.5 -444.95L1181.25 -488.69L1225 -444.95L1225 -479.31L1181.25 -523.05Z" />
					<path class="shp0" d="M1181.25 -557.38L1137.5 -513.64L1137.5 -479.27L1181.25 -523.01L1225 -479.27L1225 -513.64L1181.25 -557.38Z" />
					<path class="shp0" d="M1181.25 -591.7L1137.5 -547.96L1137.5 -513.59L1181.25 -557.34L1225 -513.59L1225 -547.96L1181.25 -591.7Z" />
					<path class="shp0" d="M1181.25 -626.03L1137.5 -582.29L1137.5 -547.92L1181.25 -591.66L1225 -547.92L1225 -582.29L1181.25 -626.03Z" />
					<path class="shp0" d="M1181.25 -660.35L1137.5 -616.61L1137.5 -582.24L1181.25 -625.98L1225 -582.24L1225 -616.61L1181.25 -660.35Z" />
					<path class="shp0" d="M1181.25 -694.68L1137.5 -650.93L1137.5 -616.57L1181.25 -660.31L1225 -616.57L1225 -650.93L1181.25 -694.68Z" />
					<path class="shp0" d="M1181.25 -729L1137.5 -685.26L1137.5 -650.89L1181.25 -694.63L1225 -650.89L1225 -685.26L1181.25 -729Z" />
				</g>
				<g >
					<path class="shp1" d="M1268.75 -317.11L1225 -273.37L1225 -239L1268.75 -282.74L1312.5 -239L1312.5 -273.37L1268.75 -317.11Z" />
					<path class="shp1" d="M1268.75 -351.43L1225 -307.69L1225 -273.32L1268.75 -317.07L1312.5 -273.32L1312.5 -307.69L1268.75 -351.43Z" />
					<path class="shp1" d="M1268.75 -385.76L1225 -342.02L1225 -307.65L1268.75 -351.39L1312.5 -307.65L1312.5 -342.02L1268.75 -385.76Z" />
					<path class="shp2" d="M1268.75 -420.08L1225 -376.34L1225 -341.97L1268.75 -385.71L1312.5 -341.97L1312.5 -376.34L1268.75 -420.08Z" />
					<path class="shp2" d="M1268.75 -454.41L1225 -410.66L1225 -376.3L1268.75 -420.04L1312.5 -376.3L1312.5 -410.66L1268.75 -454.41Z" />
					<path class="shp3" d="M1268.75 -488.73L1225 -444.99L1225 -410.62L1268.75 -454.36L1312.5 -410.62L1312.5 -444.99L1268.75 -488.73Z" />
					<path class="shp3" d="M1268.75 -523.05L1225 -479.31L1225 -444.95L1268.75 -488.69L1312.5 -444.95L1312.5 -479.31L1268.75 -523.05Z" />
					<path class="shp4" d="M1268.75 -557.38L1225 -513.64L1225 -479.27L1268.75 -523.01L1312.5 -479.27L1312.5 -513.64L1268.75 -557.38Z" />
					<path class="shp4" d="M1268.75 -591.7L1225 -547.96L1225 -513.59L1268.75 -557.34L1312.5 -513.59L1312.5 -547.96L1268.75 -591.7Z" />
					<path class="shp0" d="M1268.75 -626.03L1225 -582.29L1225 -547.92L1268.75 -591.66L1312.5 -547.92L1312.5 -582.29L1268.75 -626.03Z" />
					<path class="shp0" d="M1268.75 -660.35L1225 -616.61L1225 -582.24L1268.75 -625.98L1312.5 -582.24L1312.5 -616.61L1268.75 -660.35Z" />
					<path class="shp0" d="M1268.75 -694.68L1225 -650.93L1225 -616.57L1268.75 -660.31L1312.5 -616.57L1312.5 -650.93L1268.75 -694.68Z" />
					<path class="shp0" d="M1268.75 -729L1225 -685.26L1225 -650.89L1268.75 -694.63L1312.5 -650.89L1312.5 -685.26L1268.75 -729Z" />
				</g>
				<g >
					<path class="shp1" d="M1356.25 -317.11L1312.5 -273.37L1312.5 -239L1356.25 -282.74L1400 -239L1400 -273.37L1356.25 -317.11Z" />
					<path class="shp1" d="M1356.25 -351.43L1312.5 -307.69L1312.5 -273.32L1356.25 -317.07L1400 -273.32L1400 -307.69L1356.25 -351.43Z" />
					<path class="shp1" d="M1356.25 -385.76L1312.5 -342.02L1312.5 -307.65L1356.25 -351.39L1400 -307.65L1400 -342.02L1356.25 -385.76Z" />
					<path class="shp1" d="M1356.25 -420.08L1312.5 -376.34L1312.5 -341.97L1356.25 -385.71L1400 -341.97L1400 -376.34L1356.25 -420.08Z" />
					<path class="shp2" d="M1356.25 -454.41L1312.5 -410.66L1312.5 -376.3L1356.25 -420.04L1400 -376.3L1400 -410.66L1356.25 -454.41Z" />
					<path class="shp2" d="M1356.25 -488.73L1312.5 -444.99L1312.5 -410.62L1356.25 -454.36L1400 -410.62L1400 -444.99L1356.25 -488.73Z" />
					<path class="shp3" d="M1356.25 -523.05L1312.5 -479.31L1312.5 -444.95L1356.25 -488.69L1400 -444.95L1400 -479.31L1356.25 -523.05Z" />
					<path class="shp3" d="M1356.25 -557.38L1312.5 -513.64L1312.5 -479.27L1356.25 -523.01L1400 -479.27L1400 -513.64L1356.25 -557.38Z" />
					<path class="shp4" d="M1356.25 -591.7L1312.5 -547.96L1312.5 -513.59L1356.25 -557.34L1400 -513.59L1400 -547.96L1356.25 -591.7Z" />
					<path class="shp4" d="M1356.25 -626.03L1312.5 -582.29L1312.5 -547.92L1356.25 -591.66L1400 -547.92L1400 -582.29L1356.25 -626.03Z" />
					<path class="shp0" d="M1356.25 -660.35L1312.5 -616.61L1312.5 -582.24L1356.25 -625.98L1400 -582.24L1400 -616.61L1356.25 -660.35Z" />
					<path class="shp0" d="M1356.25 -694.68L1312.5 -650.93L1312.5 -616.57L1356.25 -660.31L1400 -616.57L1400 -650.93L1356.25 -694.68Z" />
					<path class="shp0" d="M1356.25 -729L1312.5 -685.26L1312.5 -650.89L1356.25 -694.63L1400 -650.89L1400 -685.26L1356.25 -729Z" />
				</g>
				<path class="shp0" d="M1050 251L1050 -239L1400 -239" />
				<path class="shp5" d="M1400 251L1050 251L1050 -239L1400 -239L1400 251Z" />
				<path class="shp1" d="M1400 10.73L1050 10.73L1050 -239L1400 -239L1400 10.73Z" />
				<g >
					<path class="shp5" d="M1093.75 172.89L1050 216.63L1050 251L1093.75 207.26L1137.5 251L1137.5 216.63L1093.75 172.89Z" />
					<path class="shp6" d="M1093.75 138.57L1050 182.31L1050 216.68L1093.75 172.93L1137.5 216.68L1137.5 182.31L1093.75 138.57Z" />
					<path class="shp6" d="M1093.75 104.24L1050 147.98L1050 182.35L1093.75 138.61L1137.5 182.35L1137.5 147.98L1093.75 104.24Z" />
					<path class="shp6" d="M1093.75 69.92L1050 113.66L1050 148.03L1093.75 104.29L1137.5 148.03L1137.5 113.66L1093.75 69.92Z" />
					<path class="shp6" d="M1093.75 35.59L1050 79.34L1050 113.7L1093.75 69.96L1137.5 113.7L1137.5 79.34L1093.75 35.59Z" />
					<path class="shp7" d="M1093.75 1.27L1050 45.01L1050 79.38L1093.75 35.64L1137.5 79.38L1137.5 45.01L1093.75 1.27Z" />
					<path class="shp7" d="M1093.75 -33.05L1050 10.69L1050 45.05L1093.75 1.31L1137.5 45.05L1137.5 10.69L1093.75 -33.05Z" />
					<path class="shp7" d="M1093.75 -67.38L1050 -23.64L1050 10.73L1093.75 -33.01L1137.5 10.73L1137.5 -23.64L1093.75 -67.38Z" />
					<path class="shp7" d="M1093.75 -101.7L1050 -57.96L1050 -23.59L1093.75 -67.34L1137.5 -23.59L1137.5 -57.96L1093.75 -101.7Z" />
					<path class="shp7" d="M1093.75 -136.03L1050 -92.29L1050 -57.92L1093.75 -101.66L1137.5 -57.92L1137.5 -92.29L1093.75 -136.03Z" />
					<path class="shp8" d="M1093.75 -170.35L1050 -126.61L1050 -92.24L1093.75 -135.98L1137.5 -92.24L1137.5 -126.61L1093.75 -170.35Z" />
					<path class="shp8" d="M1093.75 -204.68L1050 -160.93L1050 -126.57L1093.75 -170.31L1137.5 -126.57L1137.5 -160.93L1093.75 -204.68Z" />
					<path class="shp8" d="M1093.75 -239L1050 -195.26L1050 -160.89L1093.75 -204.63L1137.5 -160.89L1137.5 -195.26L1093.75 -239Z" />
				</g>
				<g >
					<path class="shp5" d="M1181.25 172.89L1137.5 216.63L1137.5 251L1181.25 207.26L1225 251L1225 216.63L1181.25 172.89Z" />
					<path class="shp5" d="M1181.25 138.57L1137.5 182.31L1137.5 216.68L1181.25 172.93L1225 216.68L1225 182.31L1181.25 138.57Z" />
					<path class="shp6" d="M1181.25 104.24L1137.5 147.98L1137.5 182.35L1181.25 138.61L1225 182.35L1225 147.98L1181.25 104.24Z" />
					<path class="shp6" d="M1181.25 69.92L1137.5 113.66L1137.5 148.03L1181.25 104.29L1225 148.03L1225 113.66L1181.25 69.92Z" />
					<path class="shp6" d="M1181.25 35.59L1137.5 79.34L1137.5 113.7L1181.25 69.96L1225 113.7L1225 79.34L1181.25 35.59Z" />
					<path class="shp6" d="M1181.25 1.27L1137.5 45.01L1137.5 79.38L1181.25 35.64L1225 79.38L1225 45.01L1181.25 1.27Z" />
					<path class="shp6" d="M1181.25 -33.05L1137.5 10.69L1137.5 45.05L1181.25 1.31L1225 45.05L1225 10.69L1181.25 -33.05Z" />
					<path class="shp6" d="M1181.25 -67.38L1137.5 -23.64L1137.5 10.73L1181.25 -33.01L1225 10.73L1225 -23.64L1181.25 -67.38Z" />
					<path class="shp6" d="M1181.25 -101.7L1137.5 -57.96L1137.5 -23.59L1181.25 -67.34L1225 -23.59L1225 -57.96L1181.25 -101.7Z" />
					<path class="shp6" d="M1181.25 -136.03L1137.5 -92.29L1137.5 -57.92L1181.25 -101.66L1225 -57.92L1225 -92.29L1181.25 -136.03Z" />
					<path class="shp7" d="M1181.25 -170.35L1137.5 -126.61L1137.5 -92.24L1181.25 -135.98L1225 -92.24L1225 -126.61L1181.25 -170.35Z" />
					<path class="shp7" d="M1181.25 -204.68L1137.5 -160.93L1137.5 -126.57L1181.25 -170.31L1225 -126.57L1225 -160.93L1181.25 -204.68Z" />
					<path class="shp8" d="M1181.25 -239L1137.5 -195.26L1137.5 -160.89L1181.25 -204.63L1225 -160.89L1225 -195.26L1181.25 -239Z" />
				</g>
				<g >
					<path class="shp5" d="M1268.75 172.89L1225 216.63L1225 251L1268.75 207.26L1312.5 251L1312.5 216.63L1268.75 172.89Z" />
					<path class="shp5" d="M1268.75 138.57L1225 182.31L1225 216.68L1268.75 172.93L1312.5 216.68L1312.5 182.31L1268.75 138.57Z" />
					<path class="shp5" d="M1268.75 104.24L1225 147.98L1225 182.35L1268.75 138.61L1312.5 182.35L1312.5 147.98L1268.75 104.24Z" />
					<path class="shp6" d="M1268.75 69.92L1225 113.66L1225 148.03L1268.75 104.29L1312.5 148.03L1312.5 113.66L1268.75 69.92Z" />
					<path class="shp6" d="M1268.75 35.59L1225 79.34L1225 113.7L1268.75 69.96L1312.5 113.7L1312.5 79.34L1268.75 35.59Z" />
					<path class="shp6" d="M1268.75 1.27L1225 45.01L1225 79.38L1268.75 35.64L1312.5 79.38L1312.5 45.01L1268.75 1.27Z" />
					<path class="shp6" d="M1268.75 -33.05L1225 10.69L1225 45.05L1268.75 1.31L1312.5 45.05L1312.5 10.69L1268.75 -33.05Z" />
					<path class="shp6" d="M1268.75 -67.38L1225 -23.64L1225 10.73L1268.75 -33.01L1312.5 10.73L1312.5 -23.64L1268.75 -67.38Z" />
					<path class="shp7" d="M1268.75 -101.7L1225 -57.96L1225 -23.59L1268.75 -67.34L1312.5 -23.59L1312.5 -57.96L1268.75 -101.7Z" />
					<path class="shp7" d="M1268.75 -136.03L1225 -92.29L1225 -57.92L1268.75 -101.66L1312.5 -57.92L1312.5 -92.29L1268.75 -136.03Z" />
					<path class="shp7" d="M1268.75 -170.35L1225 -126.61L1225 -92.24L1268.75 -135.98L1312.5 -92.24L1312.5 -126.61L1268.75 -170.35Z" />
					<path class="shp8" d="M1268.75 -204.68L1225 -160.93L1225 -126.57L1268.75 -170.31L1312.5 -126.57L1312.5 -160.93L1268.75 -204.68Z" />
					<path class="shp1" d="M1268.75 -239L1225 -195.26L1225 -160.89L1268.75 -204.63L1312.5 -160.89L1312.5 -195.26L1268.75 -239Z" />
				</g>
				<g >
					<path class="shp5" d="M1356.25 172.89L1312.5 216.63L1312.5 251L1356.25 207.26L1400 251L1400 216.63L1356.25 172.89Z" />
					<path class="shp5" d="M1356.25 138.57L1312.5 182.31L1312.5 216.68L1356.25 172.93L1400 216.68L1400 182.31L1356.25 138.57Z" />
					<path class="shp6" d="M1356.25 104.24L1312.5 147.98L1312.5 182.35L1356.25 138.61L1400 182.35L1400 147.98L1356.25 104.24Z" />
					<path class="shp6" d="M1356.25 69.92L1312.5 113.66L1312.5 148.03L1356.25 104.29L1400 148.03L1400 113.66L1356.25 69.92Z" />
					<path class="shp6" d="M1356.25 35.59L1312.5 79.34L1312.5 113.7L1356.25 69.96L1400 113.7L1400 79.34L1356.25 35.59Z" />
					<path class="shp6" d="M1356.25 1.27L1312.5 45.01L1312.5 79.38L1356.25 35.64L1400 79.38L1400 45.01L1356.25 1.27Z" />
					<path class="shp6" d="M1356.25 -33.05L1312.5 10.69L1312.5 45.05L1356.25 1.31L1400 45.05L1400 10.69L1356.25 -33.05Z" />
					<path class="shp6" d="M1356.25 -67.38L1312.5 -23.64L1312.5 10.73L1356.25 -33.01L1400 10.73L1400 -23.64L1356.25 -67.38Z" />
					<path class="shp6" d="M1356.25 -101.7L1312.5 -57.96L1312.5 -23.59L1356.25 -67.34L1400 -23.59L1400 -57.96L1356.25 -101.7Z" />
					<path class="shp7" d="M1356.25 -136.03L1312.5 -92.29L1312.5 -57.92L1356.25 -101.66L1400 -57.92L1400 -92.29L1356.25 -136.03Z" />
					<path class="shp7" d="M1356.25 -170.35L1312.5 -126.61L1312.5 -92.24L1356.25 -135.98L1400 -92.24L1400 -126.61L1356.25 -170.35Z" />
					<path class="shp8" d="M1356.25 -204.68L1312.5 -160.93L1312.5 -126.57L1356.25 -170.31L1400 -126.57L1400 -160.93L1356.25 -204.68Z" />
					<path class="shp8" d="M1356.25 -239L1312.5 -195.26L1312.5 -160.89L1356.25 -204.63L1400 -160.89L1400 -195.26L1356.25 -239Z" />
				</g>
				<path class="shp0" d="M1181.25 -523.05L1181.25 -204.68L1181.25 -204.68L1190.54 -195.39L1199.83 -204.68L1199.83 -523.05L1181.25 -523.05Z" />
				<path class="shp0" d="M1268.75 -591.7L1268.75 -333.11L1268.75 -333.11L1278.04 -323.82L1287.33 -333.11L1287.33 -591.7L1268.75 -591.7Z" />
				<path class="shp4" d="M1118.92 -466.84L1118.92 -148.46L1128.21 -139.17L1137.5 -148.46L1137.5 -148.46L1137.5 -466.84L1118.92 -466.84Z" />
				<path class="shp4" d="M1337.67 -557.38L1337.67 -239L1346.96 -229.71L1356.25 -239L1356.25 -239L1356.25 -557.38L1337.67 -557.38Z" />
				<path class="shp4" d="M1346.96 -179.56L1337.67 -170.27L1346.96 -160.98L1356.25 -170.27L1346.96 -179.56Z" />
				<path class="shp4" d="M1181.25 -151.43L1156.38 -126.57L1181.25 -101.7L1206.12 -126.57L1181.25 -151.43Z" />
				<path class="shp4" d="M1346.96 -210.81L1337.67 -201.52L1346.96 -192.23L1356.25 -201.52L1346.96 -210.81Z" />
				<path class="shp0" d="M1278.04 -276.6L1268.75 -267.31L1278.04 -258.02L1287.33 -267.31L1278.04 -276.6Z" />
				<path class="shp0" d="M1247.37 -253.94L1231.42 -237.98L1247.38 -222.03L1263.33 -237.98L1247.37 -253.94Z" />
			</g>
		</g>
	</g>
</svg>