<svg xmlns="http://www.w3.org/2000/svg" viewBox="0 0 1431 1327" width="1431" height="1327">
	<defs>
		<clipPath clipPathUnits="userSpaceOnUse" id="cp1">
			<path d="M1166.09 61.64C1027.84 -42.14 730.96 79.89 489.2 125.53C247.44 171.16 -96.19 425.89 128.1 846.13C352.4 1266.37 530.89 1320.63 930.61 1243.71C1330.33 1166.79 1512.16 847.85 1375.05 645.8C1237.94 443.76 1299.83 162.03 1166.09 61.64Z" />
		</clipPath>
	</defs>
	<style>
		tspan { white-space:pre }
		.shp0 { fill: #c2e6ff } 
		.shp1 { fill: #0944f4 } 
		.shp2 { fill: #000000 } 
		.shp3 { fill: #ffffff } 
	</style>
	<g id="OBJECT">
		<g id="&lt;Group&gt;">
			<path id="&lt;Path&gt;" class="shp0" d="M1166.09 61.64C1027.84 -42.14 730.96 79.89 489.2 125.53C247.44 171.16 -96.19 425.89 128.1 846.13C352.4 1266.37 530.89 1320.63 930.61 1243.71C1330.33 1166.79 1512.16 847.85 1375.05 645.8C1237.94 443.76 1299.83 162.03 1166.09 61.64Z" />
			<g id="&lt;Group&gt;">
				<path id="&lt;Compound Path&gt;" fill-rule="evenodd" class="shp1" d="M707.76 1167.75C701.78 1173.27 695.18 1177.91 688.13 1181.59L702.32 1208.61C683.3 1218.58 661.92 1223.4 640.45 1222.56L641.68 1192.07C633.73 1191.76 625.78 1190.41 618.01 1187.99L608.94 1217.12C598.94 1214.01 589.19 1209.55 579.91 1203.69C570.64 1197.83 562.43 1190.93 555.33 1183.24L577.75 1162.54C572.23 1156.57 567.6 1149.96 563.91 1142.92L536.89 1157.1C526.92 1138.08 522.1 1116.69 522.94 1095.24L553.43 1096.46C553.74 1088.52 555.09 1080.56 557.51 1072.79L528.37 1063.72C531.49 1053.73 535.95 1043.97 541.81 1034.7C547.67 1025.43 554.57 1017.21 562.26 1010.11L582.96 1032.53C588.93 1027.01 595.54 1022.38 602.59 1018.69L588.4 991.68C607.42 981.71 628.81 976.89 650.27 977.73L649.04 1008.22C656.99 1008.53 664.95 1009.88 672.71 1012.29L681.78 983.16C691.78 986.28 701.53 990.74 710.8 996.6C720.07 1002.46 728.29 1009.35 735.39 1017.05L712.97 1037.74C718.49 1043.72 723.12 1050.33 726.81 1057.37L753.83 1043.18C763.8 1062.2 768.62 1083.59 767.77 1105.04L737.28 1103.82C736.98 1111.77 735.63 1119.73 733.2 1127.49L762.34 1136.57C759.22 1146.56 754.76 1156.32 748.9 1165.59C743.04 1174.86 736.15 1183.07 728.46 1190.18L707.76 1167.75ZM678.65 1121.18C680.53 1118.2 681.97 1115.06 682.96 1111.85C684.01 1108.53 684.58 1105.12 684.71 1101.72C684.85 1098.27 684.53 1094.83 683.77 1091.48C683.02 1088.13 681.83 1084.89 680.23 1081.83C678.65 1078.82 676.67 1075.99 674.3 1073.43C672.02 1070.96 669.38 1068.74 666.4 1066.86C663.42 1064.97 660.28 1063.53 657.07 1062.53C653.75 1061.5 650.34 1060.92 646.94 1060.79C643.49 1060.65 640.04 1060.97 636.7 1061.73C633.35 1062.48 630.1 1063.67 627.05 1065.27C624.03 1066.85 621.2 1068.83 618.65 1071.2C616.17 1073.48 613.96 1076.12 612.07 1079.1C610.19 1082.09 608.75 1085.22 607.75 1088.43C606.71 1091.76 606.14 1095.17 606.01 1098.57C605.87 1102.02 606.19 1105.46 606.94 1108.8C607.7 1112.15 608.89 1115.4 610.49 1118.45C612.07 1121.47 614.05 1124.3 616.41 1126.86C618.7 1129.32 621.34 1131.55 624.32 1133.43C627.3 1135.31 630.44 1136.75 633.65 1137.75C636.98 1138.79 640.39 1139.36 643.78 1139.49C647.23 1139.63 650.68 1139.31 654.02 1138.56C657.37 1137.8 660.61 1136.61 663.67 1135.01C666.68 1133.44 669.51 1131.45 672.07 1129.09C674.55 1126.8 676.76 1124.16 678.65 1121.18Z" />
				<path id="&lt;Compound Path&gt;" fill-rule="evenodd" class="shp2" d="M645.22 1224.15C643.61 1224.15 642 1224.12 640.4 1224.06L638.9 1224L640.12 1193.5C632.95 1193.1 625.86 1191.88 619 1189.86L609.92 1219L608.49 1218.56C598.2 1215.35 588.31 1210.77 579.11 1204.96C569.91 1199.14 561.54 1192.18 554.22 1184.26L553.2 1183.15L575.64 1162.45C570.87 1157.12 566.72 1151.24 563.29 1144.94L536.26 1159.13L535.56 1157.8C525.48 1138.54 520.59 1116.89 521.45 1095.18L521.5 1093.68L552 1094.9C552.4 1087.75 553.62 1080.66 555.65 1073.78L526.49 1064.71L526.94 1063.27C530.16 1052.98 534.73 1043.09 540.54 1033.9C546.36 1024.7 553.32 1016.33 561.24 1009L562.34 1007.98L583.05 1030.42C588.39 1025.64 594.27 1021.5 600.57 1018.07L586.37 991.04L587.7 990.35C606.95 980.26 628.59 975.38 650.33 976.23L651.83 976.29L650.6 1006.79C657.75 1007.19 664.84 1008.41 671.72 1010.43L680.79 981.28L682.23 981.73C692.52 984.94 702.4 989.51 711.6 995.33C720.8 1001.14 729.18 1008.11 736.49 1016.03L737.51 1017.13L715.08 1037.83C719.86 1043.18 724.01 1049.06 727.43 1055.35L754.46 1041.15L755.16 1042.48C765.24 1061.74 770.13 1083.39 769.27 1105.1L769.21 1106.6L738.71 1105.38C738.32 1112.54 737.1 1119.63 735.07 1126.5L764.22 1135.58L763.78 1137.01C760.56 1147.31 755.98 1157.2 750.17 1166.39C744.36 1175.58 737.4 1183.96 729.48 1191.28L728.38 1192.3L707.66 1169.86C702.33 1174.64 696.45 1178.79 690.15 1182.21L704.35 1209.24L703.02 1209.93C685.2 1219.27 665.31 1224.15 645.22 1224.15ZM642.01 1221.11C662.19 1221.66 682.29 1217.11 700.29 1207.97L686.1 1180.96L687.44 1180.26C694.44 1176.6 700.94 1172.02 706.74 1166.65L707.84 1165.63L728.54 1188.05C735.81 1181.15 742.23 1173.33 747.64 1164.78C753.04 1156.24 757.35 1147.08 760.46 1137.55L731.32 1128.48L731.77 1127.04C734.13 1119.5 735.48 1111.67 735.78 1103.77L735.84 1102.27L766.33 1103.49C766.87 1083.3 762.34 1063.22 753.19 1045.21L726.18 1059.4L725.48 1058.07C721.81 1051.06 717.24 1044.57 711.87 1038.76L710.85 1037.66L733.27 1016.97C726.37 1009.69 718.55 1003.27 710 997.86C701.45 992.46 692.29 988.15 682.76 985.05L673.7 1014.17L672.26 1013.73C664.71 1011.37 656.88 1010.03 648.99 1009.72L647.49 1009.66L648.71 979.18C628.52 978.63 608.43 983.17 590.43 992.32L604.61 1019.33L603.28 1020.02C596.28 1023.69 589.78 1028.27 583.98 1033.64L582.88 1034.66L562.18 1012.23C554.9 1019.13 548.48 1026.95 543.08 1035.5C537.68 1044.05 533.37 1053.2 530.26 1062.74L559.39 1071.81L558.95 1073.24C556.59 1080.79 555.24 1088.62 554.93 1096.52L554.87 1098.02L524.39 1096.8C523.85 1116.98 528.38 1137.06 537.53 1155.07L564.54 1140.89L565.24 1142.22C568.92 1149.23 573.5 1155.73 578.85 1161.52L579.87 1162.63L557.45 1183.32C564.34 1190.59 572.16 1197.02 580.72 1202.42C589.27 1207.83 598.43 1212.13 607.96 1215.24L617.03 1186.11L618.46 1186.56C625.99 1188.91 633.82 1190.26 641.74 1190.57L643.24 1190.63L642.01 1221.11ZM645.33 1141.03C644.79 1141.03 644.26 1141.01 643.72 1140.99C640.15 1140.85 636.61 1140.24 633.2 1139.18C629.8 1138.12 626.54 1136.61 623.52 1134.7C620.49 1132.79 617.73 1130.49 615.31 1127.87C612.9 1125.27 610.83 1122.34 609.16 1119.15C607.51 1116 606.27 1112.63 605.48 1109.13C604.69 1105.62 604.37 1102.05 604.51 1098.51C604.64 1094.93 605.25 1091.39 606.32 1087.99C607.38 1084.6 608.88 1081.34 610.8 1078.3C612.72 1075.26 615.02 1072.5 617.63 1070.1C620.24 1067.67 623.18 1065.6 626.35 1063.94C629.5 1062.29 632.87 1061.05 636.37 1060.27C639.84 1059.48 643.42 1059.15 647 1059.29C650.58 1059.43 654.12 1060.04 657.52 1061.1C660.91 1062.16 664.16 1063.67 667.2 1065.59C670.23 1067.5 672.99 1069.8 675.41 1072.41C677.83 1075.03 679.9 1077.96 681.56 1081.13C683.22 1084.3 684.45 1087.67 685.24 1091.15C686.02 1094.65 686.35 1098.22 686.21 1101.78C686.07 1105.36 685.46 1108.9 684.4 1112.3C683.35 1115.68 681.84 1118.94 679.91 1121.98C678 1125.02 675.7 1127.78 673.09 1130.19C670.45 1132.62 667.52 1134.69 664.36 1136.34C661.21 1137.99 657.84 1139.23 654.35 1140.02C651.39 1140.69 648.36 1141.03 645.33 1141.03ZM645.4 1062.26C642.58 1062.26 639.77 1062.57 637.03 1063.19C633.79 1063.92 630.66 1065.07 627.75 1066.6C624.81 1068.14 622.09 1070.05 619.67 1072.3C617.25 1074.53 615.12 1077.09 613.34 1079.91C611.56 1082.72 610.16 1085.74 609.19 1088.88C608.2 1092.04 607.63 1095.31 607.51 1098.62C607.37 1101.91 607.68 1105.22 608.41 1108.48C609.14 1111.72 610.29 1114.84 611.82 1117.76C613.37 1120.71 615.28 1123.43 617.52 1125.84C619.76 1128.26 622.32 1130.39 625.12 1132.16C627.92 1133.93 630.94 1135.33 634.1 1136.32C637.25 1137.3 640.53 1137.87 643.84 1138C647.15 1138.12 650.46 1137.82 653.69 1137.09C656.92 1136.36 660.05 1135.21 662.97 1133.68C665.89 1132.16 668.61 1130.24 671.05 1127.98L671.05 1127.98C673.47 1125.75 675.6 1123.19 677.38 1120.38C679.16 1117.56 680.56 1114.54 681.53 1111.41C682.52 1108.26 683.08 1104.98 683.21 1101.66C683.34 1098.36 683.04 1095.05 682.31 1091.81C681.59 1088.58 680.44 1085.46 678.9 1082.52C677.36 1079.59 675.45 1076.87 673.2 1074.44C670.97 1072.03 668.41 1069.9 665.6 1068.12C662.78 1066.34 659.76 1064.95 656.62 1063.96C653.47 1062.98 650.19 1062.42 646.88 1062.29C646.38 1062.27 645.89 1062.26 645.4 1062.26Z" />
			</g>
			<g id="&lt;Group&gt;">
				<path id="&lt;Compound Path&gt;" fill-rule="evenodd" class="shp1" d="M885.75 1257.84C882.65 1262.94 878.91 1267.54 874.68 1271.56L890.12 1287.77C878.7 1298.63 864.57 1306.33 849.26 1310.06L843.99 1288.28C838.32 1289.66 832.43 1290.31 826.47 1290.16L825.92 1312.55C818.23 1312.36 810.45 1311.17 802.73 1308.9C795.01 1306.63 787.82 1303.41 781.26 1299.4L792.93 1280.29C787.84 1277.18 783.24 1273.44 779.22 1269.22L762.99 1284.66C752.14 1273.23 744.44 1259.11 740.72 1243.79L762.49 1238.53C761.11 1232.86 760.46 1226.97 760.61 1221L738.22 1220.45C738.41 1212.77 739.6 1204.99 741.87 1197.26C744.15 1189.54 747.37 1182.36 751.36 1175.8L770.48 1187.47C773.59 1182.37 777.33 1177.77 781.56 1173.75L766.11 1157.53C777.54 1146.67 791.67 1138.97 806.98 1135.25L812.25 1157.03C817.92 1155.65 823.81 1155 829.77 1155.15L830.32 1132.76C838 1132.95 845.79 1134.14 853.51 1136.41C861.23 1138.68 868.41 1141.9 874.97 1145.9L863.31 1165.02C868.4 1168.13 873 1171.86 877.02 1176.09L893.24 1160.65C904.1 1172.07 911.8 1186.2 915.52 1201.51L893.75 1206.78C895.13 1212.45 895.78 1218.34 895.62 1224.31L918.02 1224.86C917.82 1232.54 916.64 1240.32 914.36 1248.04C912.09 1255.77 908.87 1262.95 904.87 1269.51L885.75 1257.84ZM855.84 1230.82C856.57 1228.33 856.96 1225.83 857.02 1223.36C857.08 1220.81 856.8 1218.29 856.21 1215.86C855.62 1213.4 854.7 1211.03 853.49 1208.82C852.29 1206.61 850.8 1204.56 849.05 1202.72C847.33 1200.91 845.37 1199.31 843.18 1197.98C841.07 1196.69 838.76 1195.66 836.28 1194.93C833.8 1194.2 831.29 1193.81 828.83 1193.75C826.27 1193.69 823.75 1193.97 821.32 1194.56C818.86 1195.15 816.49 1196.07 814.28 1197.28C812.08 1198.48 810.02 1199.97 808.19 1201.72C806.37 1203.44 804.77 1205.41 803.44 1207.59C802.16 1209.7 801.12 1212.01 800.39 1214.49C799.66 1216.98 799.28 1219.47 799.22 1221.95C799.15 1224.5 799.43 1227.02 800.02 1229.45C800.62 1231.91 801.54 1234.28 802.74 1236.49C803.95 1238.7 805.44 1240.75 807.18 1242.59C808.91 1244.4 810.87 1246 813.05 1247.33C815.16 1248.61 817.47 1249.65 819.96 1250.38C822.44 1251.11 824.94 1251.49 827.41 1251.55C829.97 1251.62 832.49 1251.34 834.91 1250.75C837.38 1250.15 839.74 1249.23 841.95 1248.03C844.16 1246.82 846.21 1245.33 848.05 1243.59C849.86 1241.87 851.46 1239.9 852.79 1237.72C854.08 1235.61 855.11 1233.3 855.84 1230.82Z" />
				<path id="&lt;Compound Path&gt;" fill-rule="evenodd" class="shp2" d="M827.38 1314.09L825.88 1314.05C817.93 1313.85 810 1312.6 802.3 1310.34C794.61 1308.07 787.26 1304.82 780.48 1300.68L779.2 1299.9L790.88 1280.77C786.65 1278.07 782.73 1274.9 779.18 1271.33L762.94 1286.78L761.91 1285.69C750.87 1274.08 743.04 1259.71 739.26 1244.15L738.91 1242.69L760.69 1237.42C759.61 1232.51 759.07 1227.49 759.09 1222.46L736.68 1221.91L736.72 1220.41C736.92 1212.46 738.17 1204.53 740.43 1196.84C742.7 1189.15 745.95 1181.81 750.08 1175.02L750.87 1173.73L770 1185.41C772.71 1181.18 775.88 1177.25 779.45 1173.71L763.99 1157.48L765.08 1156.45C776.69 1145.41 791.05 1137.58 806.63 1133.8L808.09 1133.44L813.36 1155.23C818.26 1154.15 823.28 1153.62 828.31 1153.62L828.86 1131.22L830.36 1131.26C838.31 1131.46 846.24 1132.71 853.93 1134.97C861.63 1137.24 868.97 1140.49 875.76 1144.62L877.04 1145.4L865.36 1164.53C869.6 1167.25 873.52 1170.42 877.06 1173.98L893.29 1158.53L894.33 1159.61C905.37 1171.23 913.2 1185.59 916.97 1201.16L917.33 1202.62L895.54 1207.89C896.62 1212.8 897.16 1217.82 897.14 1222.84L919.55 1223.39L919.52 1224.89C919.32 1232.84 918.07 1240.77 915.8 1248.47C913.54 1256.16 910.29 1263.5 906.15 1270.29L905.37 1271.57L886.24 1259.89C883.53 1264.13 880.36 1268.06 876.79 1271.6L892.24 1287.83L891.16 1288.86C879.55 1299.89 865.18 1307.73 849.61 1311.51L848.15 1311.87L842.88 1290.08C837.97 1291.16 832.98 1291.73 827.93 1291.68L827.38 1314.09ZM783.33 1298.89C789.53 1302.53 796.19 1305.41 803.15 1307.46C810.11 1309.51 817.27 1310.7 824.45 1311L825.01 1288.62L826.51 1288.66C832.26 1288.81 838.02 1288.19 843.64 1286.83L845.1 1286.47L850.36 1308.23C864.38 1304.57 877.33 1297.51 887.99 1287.71L872.56 1271.5L873.65 1270.47C877.83 1266.5 881.47 1261.98 884.47 1257.06L885.25 1255.78L904.36 1267.44C908 1261.24 910.88 1254.58 912.92 1247.62C914.97 1240.66 916.16 1233.5 916.47 1226.32L894.08 1225.77L894.12 1224.27C894.27 1218.5 893.65 1212.74 892.29 1207.13L891.94 1205.68L913.69 1200.41C910.04 1186.4 902.98 1173.44 893.18 1162.78L876.97 1178.22L875.93 1177.13C871.97 1172.95 867.46 1169.31 862.53 1166.3L861.25 1165.52L872.91 1146.41C866.71 1142.78 860.05 1139.9 853.08 1137.85C846.13 1135.8 838.97 1134.61 831.78 1134.31L831.24 1156.68L829.74 1156.64C823.97 1156.5 818.2 1157.12 812.6 1158.48L811.14 1158.84L805.88 1137.08C791.86 1140.74 778.91 1147.8 768.24 1157.59L783.68 1173.81L782.59 1174.84C778.41 1178.81 774.77 1183.32 771.76 1188.25L770.98 1189.53L751.88 1177.87C748.24 1184.07 745.36 1190.73 743.31 1197.69C741.26 1204.64 740.07 1211.8 739.77 1218.99L762.15 1219.54L762.11 1221.04C761.96 1226.8 762.58 1232.56 763.95 1238.17L764.3 1239.63L742.54 1244.9C746.2 1258.9 753.26 1271.86 763.06 1282.53L779.27 1267.1L780.31 1268.18C784.29 1272.37 788.8 1276.01 793.71 1279.01L794.99 1279.79L783.33 1298.89ZM828.13 1253.06C827.88 1253.06 827.63 1253.06 827.37 1253.05C824.72 1252.98 822.08 1252.57 819.53 1251.82C816.98 1251.07 814.54 1249.99 812.27 1248.61C810.02 1247.24 807.94 1245.56 806.1 1243.62C804.27 1241.7 802.7 1239.54 801.42 1237.21C800.14 1234.85 799.18 1232.36 798.57 1229.8C797.93 1227.21 797.65 1224.56 797.72 1221.91C797.78 1219.27 798.2 1216.63 798.95 1214.07C799.71 1211.5 800.79 1209.06 802.16 1206.81C803.54 1204.55 805.22 1202.46 807.15 1200.63C809.07 1198.81 811.23 1197.24 813.57 1195.96C815.9 1194.69 818.39 1193.73 820.97 1193.1C823.56 1192.47 826.21 1192.19 828.86 1192.25C831.5 1192.32 834.14 1192.73 836.7 1193.49C839.27 1194.24 841.71 1195.32 843.96 1196.7C846.23 1198.08 848.31 1199.76 850.14 1201.68C851.97 1203.62 853.55 1205.78 854.81 1208.1C856.09 1210.44 857.05 1212.93 857.67 1215.51C858.3 1218.1 858.59 1220.76 858.52 1223.4C858.45 1226.03 858.04 1228.67 857.28 1231.24C856.53 1233.8 855.45 1236.25 854.07 1238.5C852.68 1240.78 851 1242.86 849.08 1244.68C847.16 1246.5 845 1248.07 842.67 1249.35C840.34 1250.62 837.85 1251.58 835.27 1252.21C832.93 1252.78 830.53 1253.06 828.13 1253.06ZM828.12 1195.24C825.95 1195.24 823.79 1195.5 821.68 1196.01C819.35 1196.58 817.1 1197.45 815 1198.59C812.89 1199.74 810.95 1201.16 809.22 1202.8C807.48 1204.46 805.97 1206.33 804.73 1208.37C803.49 1210.4 802.51 1212.6 801.83 1214.91C801.15 1217.23 800.78 1219.61 800.72 1221.98C800.66 1224.37 800.91 1226.76 801.48 1229.09C802.04 1231.4 802.91 1233.65 804.06 1235.77C805.21 1237.88 806.63 1239.82 808.27 1241.55C809.93 1243.3 811.8 1244.81 813.83 1246.05C815.87 1247.29 818.08 1248.26 820.38 1248.94C822.68 1249.62 825.06 1249.99 827.45 1250.05C829.84 1250.11 832.23 1249.86 834.56 1249.29C836.88 1248.73 839.13 1247.86 841.23 1246.71C843.34 1245.56 845.28 1244.15 847.02 1242.5C848.75 1240.86 850.26 1238.99 851.51 1236.94L851.51 1236.94C852.75 1234.91 853.72 1232.7 854.4 1230.39C855.09 1228.07 855.46 1225.7 855.52 1223.33C855.58 1220.94 855.32 1218.55 854.76 1216.21C854.2 1213.9 853.33 1211.65 852.18 1209.54C851.03 1207.44 849.62 1205.49 847.97 1203.75C846.31 1202.01 844.44 1200.5 842.4 1199.26C840.37 1198.02 838.17 1197.05 835.86 1196.37C833.54 1195.69 831.16 1195.31 828.79 1195.25C828.57 1195.25 828.34 1195.24 828.12 1195.24Z" />
			</g>
			<g id="&lt;Group&gt;">
				<path id="&lt;Compound Path&gt;" fill-rule="evenodd" class="shp1" d="M1020.84 1060.75C1011.93 1068.98 1002.09 1075.88 991.59 1081.38L1012.73 1121.64C984.39 1136.49 952.52 1143.68 920.53 1142.43L922.36 1096.99C910.52 1096.52 898.66 1094.52 887.09 1090.91L873.56 1134.33C858.67 1129.69 844.13 1123.04 830.31 1114.31C816.49 1105.58 804.25 1095.29 793.67 1083.83L827.09 1052.99C818.86 1044.09 811.96 1034.23 806.46 1023.74L766.19 1044.88C751.34 1016.53 744.15 984.66 745.41 952.69L790.85 954.51C791.31 942.67 793.31 930.81 796.93 919.23L753.5 905.71C758.15 890.82 764.79 876.28 773.53 862.46C782.26 848.64 792.54 836.4 804 825.81L834.85 859.23C843.75 851 853.6 844.1 864.1 838.61L842.96 798.34C871.3 783.49 903.18 776.3 935.16 777.55L933.34 823C945.18 823.46 957.03 825.47 968.61 829.07L982.12 785.65C997.02 790.3 1011.56 796.94 1025.37 805.68C1039.19 814.41 1051.43 824.69 1062.02 836.15L1028.61 867C1036.83 875.9 1043.73 885.75 1049.23 896.25L1089.5 875.1C1104.35 903.45 1111.54 935.32 1110.28 967.3L1064.84 965.48C1064.38 977.32 1062.37 989.18 1058.76 1000.75L1102.19 1014.27C1097.54 1029.17 1090.89 1043.71 1082.16 1057.52C1073.43 1071.34 1063.15 1083.58 1051.69 1094.17L1020.84 1060.75ZM977.45 991.35C980.26 986.9 982.4 982.23 983.89 977.44C985.44 972.49 986.29 967.41 986.49 962.34C986.7 957.2 986.22 952.07 985.09 947.08C983.97 942.1 982.2 937.26 979.81 932.7C977.46 928.21 974.51 923.99 970.98 920.18C967.58 916.5 963.64 913.19 959.2 910.38C954.75 907.58 950.08 905.44 945.3 903.94C940.34 902.4 935.26 901.54 930.2 901.34C925.05 901.14 919.92 901.61 914.94 902.74C909.95 903.87 905.11 905.64 900.56 908.02C896.06 910.38 891.84 913.33 888.03 916.86C884.35 920.26 881.04 924.19 878.23 928.64C875.43 933.08 873.29 937.75 871.8 942.54C870.25 947.5 869.39 952.58 869.2 957.64C868.99 962.78 869.47 967.91 870.59 972.9C871.72 977.88 873.49 982.73 875.88 987.28C878.24 991.77 881.19 996 884.71 999.8C888.11 1003.48 892.05 1006.79 896.49 1009.6C900.93 1012.41 905.61 1014.54 910.39 1016.04C915.35 1017.58 920.43 1018.44 925.49 1018.64C930.64 1018.84 935.77 1018.37 940.75 1017.24C945.74 1016.11 950.57 1014.35 955.13 1011.96C959.62 1009.61 963.84 1006.65 967.65 1003.13C971.34 999.72 974.64 995.79 977.45 991.35Z" />
				<path id="&lt;Compound Path&gt;" fill-rule="evenodd" class="shp2" d="M927.64 1144.07C925.25 1144.07 922.87 1144.03 920.48 1143.93L918.98 1143.87L920.8 1098.42C909.69 1097.86 898.7 1095.97 888.08 1092.78L874.55 1136.21L873.12 1135.76C857.84 1131 843.16 1124.21 829.51 1115.58C815.86 1106.95 803.43 1096.61 792.56 1084.85L791.55 1083.75L824.97 1052.9C817.54 1044.68 811.11 1035.56 805.84 1025.76L765.56 1046.91L764.86 1045.58C749.89 1017 742.65 984.85 743.91 952.63L743.97 951.13L789.41 952.95C789.97 941.85 791.86 930.86 795.06 920.22L751.62 906.7L752.07 905.26C756.84 889.98 763.63 875.31 772.26 861.66C780.89 848.01 791.22 835.58 802.98 824.71L804.08 823.69L834.94 857.12C843.18 849.67 852.29 843.24 862.08 837.98L840.93 797.71L842.26 797.01C870.83 782.04 902.96 774.79 935.22 776.06L936.72 776.11L934.9 821.57C945.98 822.12 956.97 824.01 967.62 827.2L981.14 783.78L982.57 784.22C997.85 788.99 1012.52 795.78 1026.18 804.41C1039.83 813.04 1052.26 823.38 1063.12 835.13L1064.14 836.24L1030.72 867.09C1038.18 875.33 1044.6 884.45 1049.85 894.23L1090.13 873.08L1090.83 874.41C1105.8 902.98 1113.04 935.13 1111.78 967.36L1111.72 968.86L1066.27 967.04C1065.72 978.13 1063.83 989.13 1060.63 999.76L1104.07 1013.29L1103.62 1014.72C1098.85 1030.01 1092.05 1044.68 1083.43 1058.33C1074.8 1071.98 1064.46 1084.41 1052.71 1095.28L1051.6 1096.29L1020.75 1062.87C1012.51 1070.31 1003.4 1076.74 993.61 1082L1014.76 1122.27L1013.43 1122.96C986.98 1136.83 957.46 1144.07 927.64 1144.07ZM922.09 1140.99C952.83 1141.94 983.38 1135.03 1010.7 1121L989.56 1080.75L990.89 1080.05C1001.39 1074.55 1011.12 1067.69 1019.82 1059.65L1020.92 1058.63L1051.77 1092.05C1062.88 1081.6 1072.67 1069.73 1080.89 1056.72C1089.11 1043.72 1095.63 1029.78 1100.3 1015.26L1056.88 1001.74L1057.33 1000.3C1060.86 989 1062.88 977.26 1063.34 965.42L1063.4 963.92L1108.83 965.74C1109.78 935.03 1102.89 904.47 1088.86 877.13L1048.6 898.27L1047.9 896.94C1042.41 886.46 1035.55 876.73 1027.51 868.01L1026.49 866.91L1059.9 836.07C1049.46 824.96 1037.58 815.17 1024.57 806.95C1011.57 798.72 997.62 792.2 983.11 787.54L969.59 830.95L968.16 830.5C956.84 826.98 945.1 824.96 933.28 824.5L931.78 824.44L933.6 779C902.89 778.06 872.31 784.95 844.99 798.98L866.12 839.24L864.79 839.94C854.3 845.43 844.57 852.29 835.87 860.34L834.77 861.36L803.92 827.94C792.81 838.38 783.01 850.26 774.8 863.26C766.58 876.27 760.05 890.21 755.38 904.73L798.81 918.25L798.36 919.68C794.83 930.99 792.8 942.73 792.35 954.56L792.29 956.06L746.85 954.25C745.91 984.95 752.8 1015.51 766.83 1042.86L807.09 1021.71L807.79 1023.05C813.3 1033.56 820.16 1043.29 828.19 1051.97L829.21 1053.07L795.79 1083.91C806.23 1095.03 818.11 1104.82 831.11 1113.04C844.12 1121.26 858.06 1127.79 872.58 1132.45L886.1 1089.03L887.54 1089.48C898.83 1093 910.56 1095.02 922.41 1095.49L923.91 1095.55L922.09 1140.99ZM927.79 1020.18C927.01 1020.18 926.22 1020.17 925.44 1020.14C920.18 1019.93 914.96 1019.03 909.95 1017.47C904.94 1015.9 900.14 1013.68 895.69 1010.87C891.23 1008.05 887.16 1004.67 883.61 1000.82C880.06 996.99 877.01 992.67 874.55 987.98C872.12 983.34 870.29 978.38 869.13 973.23C867.97 968.06 867.49 962.8 867.7 957.58C867.9 952.32 868.8 947.11 870.37 942.1C871.92 937.11 874.14 932.31 876.97 927.84C879.8 923.36 883.18 919.29 887.02 915.75C890.87 912.19 895.19 909.14 899.86 906.69C904.5 904.26 909.46 902.44 914.61 901.28C919.73 900.12 924.98 899.63 930.25 899.84C935.52 900.05 940.73 900.95 945.74 902.51C950.73 904.07 955.53 906.29 960 909.12C964.46 911.94 968.53 915.32 972.08 919.16C975.65 923.02 978.7 927.34 981.14 932C983.58 936.66 985.4 941.63 986.56 946.76C987.72 951.9 988.2 957.16 987.99 962.4C987.78 967.67 986.89 972.88 985.32 977.89C983.77 982.87 981.55 987.67 978.72 992.15C975.89 996.62 972.51 1000.69 968.67 1004.23C964.79 1007.81 960.47 1010.86 955.83 1013.29C951.19 1015.72 946.22 1017.54 941.08 1018.7C936.72 1019.69 932.26 1020.18 927.79 1020.18ZM927.9 902.79C923.65 902.79 919.41 903.27 915.27 904.21C910.38 905.31 905.66 907.04 901.25 909.35C896.82 911.67 892.71 914.57 889.05 917.96C885.41 921.32 882.19 925.18 879.5 929.44C876.82 933.69 874.7 938.25 873.23 942.99C871.74 947.75 870.89 952.7 870.7 957.7C870.5 962.66 870.95 967.66 872.06 972.57C873.16 977.46 874.89 982.18 877.21 986.58C879.55 991.04 882.44 995.14 885.81 998.78C889.19 1002.44 893.05 1005.65 897.29 1008.34C901.52 1011.01 906.08 1013.12 910.84 1014.61C915.61 1016.09 920.56 1016.95 925.55 1017.14C930.54 1017.34 935.55 1016.88 940.42 1015.78C945.31 1014.67 950.02 1012.94 954.44 1010.63C958.85 1008.32 962.95 1005.43 966.64 1002.03L966.64 1002.02C970.28 998.66 973.5 994.8 976.18 990.55C978.87 986.29 980.99 981.73 982.46 977C983.94 972.24 984.8 967.29 984.99 962.28C985.19 957.31 984.73 952.3 983.63 947.41C982.53 942.54 980.8 937.82 978.48 933.39C976.16 928.96 973.27 924.86 969.88 921.19C966.51 917.55 962.64 914.33 958.4 911.65C954.15 908.97 949.59 906.86 944.85 905.37C940.09 903.89 935.14 903.04 930.14 902.84C929.39 902.81 928.65 902.79 927.9 902.79Z" />
			</g>
			<g id="&lt;Group&gt;">
				<g id="&lt;Group&gt;">
					<path id="&lt;Path&gt;" class="shp2" d="M1323.45 214.46L1291.12 214.46C1337.58 214.46 1375.25 252.13 1375.25 298.63L1375.25 866.54C1375.25 913 1337.58 950.72 1291.12 950.72L1323.45 950.72C1369.91 950.72 1407.58 913 1407.58 866.54L1407.58 298.63C1407.58 252.13 1369.91 214.46 1323.45 214.46Z" />
					<path id="&lt;Compound Path&gt;" fill-rule="evenodd" class="shp2" d="M1323.45 952.22L1291.12 952.22L1291.12 949.22C1336.69 949.22 1373.75 912.13 1373.75 866.54L1373.75 298.63C1373.75 253.05 1336.69 215.96 1291.12 215.96L1291.12 212.96L1323.45 212.96C1370.67 212.96 1409.08 251.39 1409.08 298.63L1409.08 866.54C1409.08 913.78 1370.67 952.22 1323.45 952.22ZM1313.62 949.22L1323.45 949.22C1369.01 949.22 1406.08 912.13 1406.08 866.54L1406.08 298.63C1406.08 253.05 1369.01 215.96 1323.45 215.96L1313.62 215.96C1349.96 225.87 1376.75 259.18 1376.75 298.63L1376.75 866.54C1376.75 906 1349.96 939.31 1313.62 949.22Z" />
				</g>
				<g id="&lt;Group&gt;">
					<path id="&lt;Compound Path&gt;" fill-rule="evenodd" class="shp3" d="M379.32 212.94L1290.92 212.94C1337.38 212.94 1375.05 250.61 1375.05 297.11L1375.05 865.02C1375.05 911.48 1337.38 949.2 1290.92 949.2L379.32 949.2C332.86 949.2 295.19 911.48 295.19 865.02L295.19 297.11C295.19 250.61 332.86 212.94 379.32 212.94ZM379.36 853.02L1290.92 853.02C1323.29 853.02 1349.6 826.67 1349.6 794.3L1349.6 297.11C1349.6 264.74 1323.29 238.39 1290.92 238.39L379.36 238.39C346.99 238.39 320.64 264.74 320.64 297.11L320.64 794.3C320.64 826.67 346.99 853.02 379.36 853.02Z" />
					<path id="&lt;Compound Path&gt;" fill-rule="evenodd" class="shp2" d="M1290.92 950.7L379.32 950.7C332.1 950.7 293.69 912.26 293.69 865.02L293.69 297.11C293.69 249.87 332.1 211.44 379.32 211.44L1290.92 211.44C1338.14 211.44 1376.55 249.87 1376.55 297.11L1376.55 865.02C1376.55 912.26 1338.14 950.7 1290.92 950.7ZM379.32 214.44C333.75 214.44 296.69 251.52 296.69 297.11L296.69 865.02C296.69 910.61 333.75 947.7 379.32 947.7L1290.92 947.7C1336.49 947.7 1373.55 910.61 1373.55 865.02L1373.55 297.11C1373.55 251.52 1336.49 214.44 1290.92 214.44L379.32 214.44ZM1290.92 854.52L379.36 854.52C346.16 854.52 319.14 827.5 319.14 794.3L319.14 297.11C319.14 263.91 346.16 236.89 379.36 236.89L1290.92 236.89C1324.1 236.89 1351.1 263.91 1351.1 297.11L1351.1 794.3C1351.1 827.5 1324.1 854.52 1290.92 854.52ZM379.36 239.89C347.81 239.89 322.14 265.56 322.14 297.11L322.14 794.3C322.14 825.85 347.81 851.52 379.36 851.52L1290.92 851.52C1322.45 851.52 1348.1 825.85 1348.1 794.3L1348.1 297.11C1348.1 265.56 1322.45 239.89 1290.92 239.89L379.36 239.89Z" />
				</g>
				<g id="&lt;Group&gt;">
					<path id="&lt;Path&gt;" class="shp0" d="M1349.79 298.62L1349.79 795.81C1349.79 819.27 1336 839.55 1316.06 848.92C1308.47 852.53 1300.02 854.53 1291.11 854.53L379.55 854.53C347.18 854.53 320.83 828.19 320.83 795.81L320.83 298.62C320.83 269.48 342.19 245.21 370.08 240.67C373.17 240.16 376.33 239.9 379.55 239.9L1291.11 239.9C1294.34 239.9 1297.51 240.16 1300.59 240.67C1328.46 245.21 1349.79 269.48 1349.79 298.62Z" />
					<path id="&lt;Compound Path&gt;" fill-rule="evenodd" class="shp2" d="M1291.11 856.03L379.55 856.03C346.35 856.03 319.33 829.01 319.33 795.81L319.33 298.62C319.33 268.95 340.57 243.96 369.84 239.19C373.03 238.67 376.3 238.4 379.55 238.4L1291.11 238.4C1294.38 238.4 1297.65 238.67 1300.83 239.19C1330.07 243.96 1351.29 268.95 1351.29 298.62L1351.29 795.81C1351.29 819.02 1337.71 840.41 1316.7 850.28C1308.67 854.09 1300.06 856.03 1291.11 856.03ZM379.55 241.4C376.46 241.4 373.36 241.65 370.32 242.15C342.51 246.68 322.33 270.43 322.33 298.62L322.33 795.81C322.33 827.36 348 853.03 379.55 853.03L1291.11 853.03C1299.61 853.03 1307.79 851.19 1315.42 847.57C1335.39 838.18 1348.29 817.87 1348.29 795.81L1348.29 298.62C1348.29 270.43 1328.13 246.68 1300.35 242.15C1297.32 241.65 1294.21 241.4 1291.11 241.4L379.55 241.4Z" />
				</g>
				<g id="&lt;Group&gt;">
					<path id="&lt;Path&gt;" class="shp1" d="M1349.79 298.62L1349.79 310.39L320.83 310.39L320.83 298.62C320.83 269.48 342.19 245.21 370.08 240.67L1300.59 240.67C1328.46 245.21 1349.79 269.48 1349.79 298.62Z" />
					<path id="&lt;Compound Path&gt;" fill-rule="evenodd" class="shp2" d="M1351.29 311.89L319.33 311.89L319.33 298.62C319.33 268.95 340.57 243.96 369.84 239.19L370.08 239.17L1300.71 239.17L1300.83 239.19C1330.07 243.96 1351.29 268.95 1351.29 298.62L1351.29 311.89ZM322.33 308.89L1348.29 308.89L1348.29 298.62C1348.29 270.47 1328.18 246.75 1300.47 242.17L370.2 242.17C342.45 246.75 322.33 270.47 322.33 298.62L322.33 308.89Z" />
				</g>
				<g id="&lt;Group&gt;">
					<path id="&lt;Path&gt;" class="shp3" d="M393.97 275.53C393.97 282.92 387.98 288.9 380.59 288.9C373.21 288.9 367.22 282.92 367.22 275.53C367.22 268.15 373.21 262.16 380.59 262.16C387.98 262.16 393.97 268.15 393.97 275.53Z" />
					<path id="&lt;Compound Path&gt;" fill-rule="evenodd" class="shp2" d="M380.59 290.4C372.39 290.4 365.72 283.73 365.72 275.53C365.72 267.33 372.39 260.66 380.59 260.66C388.8 260.66 395.47 267.33 395.47 275.53C395.47 283.73 388.8 290.4 380.59 290.4ZM380.59 263.66C374.05 263.66 368.72 268.98 368.72 275.53C368.72 282.08 374.05 287.4 380.59 287.4C387.14 287.4 392.47 282.08 392.47 275.53C392.47 268.98 387.14 263.66 380.59 263.66Z" />
				</g>
				<g id="&lt;Group&gt;">
					<path id="&lt;Path&gt;" class="shp3" d="M463.05 275.53C463.05 282.92 457.06 288.9 449.68 288.9C442.29 288.9 436.3 282.92 436.3 275.53C436.3 268.15 442.29 262.16 449.68 262.16C457.06 262.16 463.05 268.15 463.05 275.53Z" />
					<path id="&lt;Compound Path&gt;" fill-rule="evenodd" class="shp2" d="M449.68 290.4C441.48 290.4 434.8 283.73 434.8 275.53C434.8 267.33 441.48 260.66 449.68 260.66C457.88 260.66 464.55 267.33 464.55 275.53C464.55 283.73 457.88 290.4 449.68 290.4ZM449.68 263.66C443.13 263.66 437.8 268.98 437.8 275.53C437.8 282.08 443.13 287.4 449.68 287.4C456.22 287.4 461.55 282.08 461.55 275.53C461.55 268.98 456.22 263.66 449.68 263.66Z" />
				</g>
				<g id="&lt;Group&gt;">
					<path id="&lt;Path&gt;" class="shp3" d="M528.61 275.53C528.61 282.92 522.62 288.9 515.24 288.9C507.85 288.9 501.87 282.92 501.87 275.53C501.87 268.15 507.85 262.16 515.24 262.16C522.62 262.16 528.61 268.15 528.61 275.53Z" />
					<path id="&lt;Compound Path&gt;" fill-rule="evenodd" class="shp2" d="M515.24 290.4C507.04 290.4 500.37 283.73 500.37 275.53C500.37 267.33 507.04 260.66 515.24 260.66C523.44 260.66 530.11 267.33 530.11 275.53C530.11 283.73 523.44 290.4 515.24 290.4ZM515.24 263.66C508.69 263.66 503.37 268.98 503.37 275.53C503.37 282.08 508.69 287.4 515.24 287.4C521.78 287.4 527.11 282.08 527.11 275.53C527.11 268.98 521.78 263.66 515.24 263.66Z" />
				</g>
				<g id="&lt;Group&gt;">
					<g id="&lt;Group&gt;">
						<path id="&lt;Path&gt;" class="shp1" d="M953.89 461.28C953.89 490.15 941.68 516.17 922.15 534.46C904.23 551.24 880.14 561.52 853.65 561.52C824.84 561.52 798.88 549.37 780.59 529.91C763.74 511.99 753.4 487.84 753.4 461.28C753.4 405.91 798.28 361.03 853.65 361.03C909.01 361.03 953.89 405.91 953.89 461.28Z" />
						<path id="&lt;Compound Path&gt;" fill-rule="evenodd" class="shp2" d="M853.65 563.02C825.27 563.02 798.94 551.63 779.5 530.94C761.7 512.01 751.9 487.27 751.9 461.28C751.9 405.18 797.55 359.53 853.65 359.53C909.75 359.53 955.39 405.18 955.39 461.28C955.39 489.31 943.65 516.38 923.17 535.55C904.27 553.26 879.57 563.02 853.65 563.02ZM853.65 362.53C799.2 362.53 754.9 406.83 754.9 461.28C754.9 486.51 764.42 510.52 781.69 528.89C800.55 548.96 826.11 560.02 853.65 560.02C878.81 560.02 902.77 550.55 921.12 533.36C940.99 514.76 952.39 488.48 952.39 461.28C952.39 406.83 908.09 362.53 853.65 362.53Z" />
					</g>
					<g id="&lt;Group&gt;">
						<g id="&lt;Group&gt;">
							<path id="&lt;Path&gt;" class="shp3" d="M888.75 440.18C888.75 461.34 871.59 478.5 850.43 478.5C829.27 478.5 812.11 461.34 812.11 440.18C812.11 419.02 829.27 401.86 850.43 401.86C871.59 401.86 888.75 419.02 888.75 440.18Z" />
							<path id="&lt;Compound Path&gt;" fill-rule="evenodd" class="shp2" d="M850.43 480C828.48 480 810.61 462.13 810.61 440.18C810.61 418.22 828.48 400.36 850.43 400.36C872.39 400.36 890.25 418.22 890.25 440.18C890.25 462.13 872.39 480 850.43 480ZM850.43 403.36C830.13 403.36 813.61 419.88 813.61 440.18C813.61 460.48 830.13 477 850.43 477C870.73 477 887.25 460.48 887.25 440.18C887.25 419.88 870.73 403.36 850.43 403.36Z" />
						</g>
						<g id="&lt;Group&gt;">
							<path id="&lt;Path&gt;" class="shp3" d="M922.15 534.46C904.23 551.24 880.14 561.52 853.65 561.52C824.84 561.52 798.88 549.37 780.59 529.91C792.63 503.36 819.37 484.88 850.43 484.88C883.23 484.88 911.21 505.49 922.15 534.46Z" />
							<path id="&lt;Compound Path&gt;" fill-rule="evenodd" class="shp2" d="M853.65 563.02C825.27 563.02 798.94 551.63 779.5 530.94L778.81 530.21L779.23 529.29C791.87 501.4 819.82 483.38 850.43 483.38C882.76 483.38 912.14 503.7 923.55 533.93L923.91 534.87L923.17 535.55C904.27 553.26 879.57 563.02 853.65 563.02ZM782.38 529.62C801.18 549.23 826.45 560.02 853.65 560.02C878.47 560.02 902.13 550.8 920.38 534.05C909.16 505.5 881.18 486.38 850.43 486.38C821.33 486.38 794.73 503.32 782.38 529.62Z" />
						</g>
					</g>
					<g id="&lt;Group&gt;">
						<path id="&lt;Path&gt;" class="shp3" d="M1160.26 604.4L1160.26 629.02C1160.26 640.95 1150.5 650.72 1138.56 650.72L564.18 650.72C552.24 650.72 542.48 640.95 542.48 629.02L542.48 604.4C542.48 592.46 552.24 582.7 564.18 582.7L1138.56 582.7C1150.5 582.7 1160.26 592.46 1160.26 604.4Z" />
						<path id="&lt;Compound Path&gt;" fill-rule="evenodd" class="shp2" d="M1138.56 652.23L564.18 652.23C551.39 652.23 540.98 641.81 540.98 629.02L540.98 604.4C540.98 591.61 551.39 581.2 564.18 581.2L1138.56 581.2C1151.36 581.2 1161.76 591.61 1161.76 604.4L1161.76 629.02C1161.76 641.81 1151.36 652.23 1138.56 652.23ZM564.18 584.2C553.04 584.2 543.98 593.26 543.98 604.4L543.98 629.02C543.98 640.16 553.04 649.23 564.18 649.23L1138.56 649.23C1149.7 649.23 1158.76 640.16 1158.76 629.02L1158.76 604.4C1158.76 593.26 1149.7 584.2 1138.56 584.2L564.18 584.2Z" />
					</g>
					<g id="&lt;Group&gt;">
						<path id="&lt;Path&gt;" class="shp3" d="M1160.26 700.19L1160.26 724.81C1160.26 736.75 1150.5 746.51 1138.56 746.51L564.18 746.51C552.24 746.51 542.48 736.75 542.48 724.81L542.48 700.19C542.48 688.25 552.24 678.49 564.18 678.49L1138.56 678.49C1150.5 678.49 1160.26 688.25 1160.26 700.19Z" />
						<path id="&lt;Compound Path&gt;" fill-rule="evenodd" class="shp2" d="M1138.56 748.01L564.18 748.01C551.39 748.01 540.98 737.61 540.98 724.81L540.98 700.19C540.98 687.4 551.39 676.99 564.18 676.99L1138.56 676.99C1151.36 676.99 1161.76 687.4 1161.76 700.19L1161.76 724.81C1161.76 737.61 1151.36 748.01 1138.56 748.01ZM564.18 679.99C553.04 679.99 543.98 689.05 543.98 700.19L543.98 724.81C543.98 735.95 553.04 745.01 564.18 745.01L1138.56 745.01C1149.7 745.01 1158.76 735.95 1158.76 724.81L1158.76 700.19C1158.76 689.05 1149.7 679.99 1138.56 679.99L564.18 679.99Z" />
					</g>
					<g id="&lt;Group&gt;">
						<path id="&lt;Path&gt;" class="shp1" d="M716.39 582.7L716.39 650.72L564.18 650.72C552.24 650.72 542.48 640.95 542.48 629.02L542.48 604.4C542.48 592.46 552.24 582.7 564.18 582.7L716.39 582.7Z" />
						<path id="&lt;Compound Path&gt;" fill-rule="evenodd" class="shp2" d="M717.89 652.23L564.18 652.23C551.39 652.23 540.98 641.81 540.98 629.02L540.98 604.4C540.98 591.61 551.39 581.2 564.18 581.2L717.89 581.2L717.89 652.23ZM564.18 584.2C553.04 584.2 543.98 593.26 543.98 604.4L543.98 629.02C543.98 640.16 553.04 649.23 564.18 649.23L714.89 649.23L714.89 584.2L564.18 584.2Z" />
					</g>
					<g id="&lt;Group&gt;">
						<path id="&lt;Path&gt;" class="shp1" d="M564.18 678.49L716.39 678.49L716.39 746.51L564.18 746.51C552.24 746.51 542.48 736.75 542.48 724.81L542.48 700.19C542.48 688.25 552.24 678.49 564.18 678.49Z" />
						<path id="&lt;Compound Path&gt;" fill-rule="evenodd" class="shp2" d="M717.89 748.01L564.18 748.01C551.39 748.01 540.98 737.61 540.98 724.81L540.98 700.19C540.98 687.4 551.39 676.99 564.18 676.99L717.89 676.99L717.89 748.01ZM564.18 679.99C553.04 679.99 543.98 689.05 543.98 700.19L543.98 724.81C543.98 735.95 553.04 745.01 564.18 745.01L714.89 745.01L714.89 679.99L564.18 679.99Z" />
					</g>
					<path id="&lt;Path&gt;" class="shp0" d="M1098.86 635.45L758.73 635.45C749.14 635.45 741.37 627.68 741.37 618.1L741.37 618.1C741.37 608.51 749.14 600.74 758.73 600.74L1098.86 600.74C1108.44 600.74 1116.21 608.51 1116.21 618.1L1116.21 618.1C1116.21 627.68 1108.44 635.45 1098.86 635.45Z" />
					<g id="&lt;Group&gt;">
						<path id="&lt;Compound Path&gt;" class="shp2" d="M785.19 708.73L790.37 711.53L788.04 715.43L782.82 712.34L782.91 718.09L778.45 718.09L778.49 712.29L773.27 715.43L770.99 711.53L776.17 708.73L770.99 705.88L773.27 701.99L778.49 705.12L778.45 699.33L782.91 699.33L782.82 705.12L788.04 701.99L790.37 705.88L785.19 708.73Z" />
						<path id="&lt;Compound Path&gt;" class="shp2" d="M806.75 708.73L811.93 711.53L809.6 715.43L804.38 712.34L804.47 718.09L800.01 718.09L800.06 712.29L794.83 715.43L792.55 711.53L797.73 708.73L792.55 705.88L794.83 701.99L800.06 705.12L800.01 699.33L804.47 699.33L804.38 705.12L809.6 701.99L811.93 705.88L806.75 708.73Z" />
						<path id="&lt;Compound Path&gt;" class="shp2" d="M828.31 708.73L833.49 711.53L831.16 715.43L825.94 712.34L826.03 718.09L821.57 718.09L821.62 712.29L816.39 715.43L814.11 711.53L819.29 708.73L814.11 705.88L816.39 701.99L821.62 705.12L821.57 699.33L826.03 699.33L825.94 705.12L831.16 701.99L833.49 705.88L828.31 708.73Z" />
						<path id="&lt;Compound Path&gt;" class="shp2" d="M849.88 708.73L855.05 711.53L852.73 715.43L847.5 712.34L847.6 718.09L843.13 718.09L843.18 712.29L837.95 715.43L835.67 711.53L840.85 708.73L835.67 705.88L837.95 701.99L843.18 705.12L843.13 699.33L847.6 699.33L847.5 705.12L852.73 701.99L855.05 705.88L849.88 708.73Z" />
						<path id="&lt;Compound Path&gt;" class="shp2" d="M871.44 708.73L876.61 711.53L874.29 715.43L869.06 712.34L869.16 718.09L864.69 718.09L864.74 712.29L859.52 715.43L857.24 711.53L862.41 708.73L857.24 705.88L859.52 701.99L864.74 705.12L864.69 699.33L869.16 699.33L869.06 705.12L874.29 701.99L876.61 705.88L871.44 708.73Z" />
						<path id="&lt;Compound Path&gt;" class="shp2" d="M893 708.73L898.18 711.53L895.85 715.43L890.62 712.34L890.72 718.09L886.26 718.09L886.3 712.29L881.08 715.43L878.8 711.53L883.98 708.73L878.8 705.88L881.08 701.99L886.3 705.12L886.26 699.33L890.72 699.33L890.62 705.12L895.85 701.99L898.18 705.88L893 708.73Z" />
						<path id="&lt;Compound Path&gt;" class="shp2" d="M914.56 708.73L919.74 711.53L917.41 715.43L912.19 712.34L912.28 718.09L907.82 718.09L907.86 712.29L902.64 715.43L900.36 711.53L905.54 708.73L900.36 705.88L902.64 701.99L907.86 705.12L907.82 699.33L912.28 699.33L912.19 705.12L917.41 701.99L919.74 705.88L914.56 708.73Z" />
						<path id="&lt;Compound Path&gt;" class="shp2" d="M936.12 708.73L941.3 711.53L938.97 715.43L933.75 712.34L933.84 718.09L929.38 718.09L929.43 712.29L924.2 715.43L921.92 711.53L927.1 708.73L921.92 705.88L924.2 701.99L929.43 705.12L929.38 699.33L933.84 699.33L933.75 705.12L938.97 701.99L941.3 705.88L936.12 708.73Z" />
						<path id="&lt;Compound Path&gt;" class="shp2" d="M957.68 708.73L962.86 711.53L960.53 715.43L955.31 712.34L955.41 718.09L950.94 718.09L950.99 712.29L945.76 715.43L943.48 711.53L948.66 708.73L943.48 705.88L945.76 701.99L950.99 705.12L950.94 699.33L955.41 699.33L955.31 705.12L960.53 701.99L962.86 705.88L957.68 708.73Z" />
						<path id="&lt;Compound Path&gt;" class="shp2" d="M979.25 708.73L984.42 711.53L982.1 715.43L976.87 712.34L976.97 718.09L972.5 718.09L972.55 712.29L967.33 715.43L965.05 711.53L970.22 708.73L965.05 705.88L967.33 701.99L972.55 705.12L972.5 699.33L976.97 699.33L976.87 705.12L982.1 701.99L984.42 705.88L979.25 708.73Z" />
						<path id="&lt;Compound Path&gt;" class="shp2" d="M1000.81 708.73L1005.99 711.53L1003.66 715.43L998.43 712.34L998.53 718.09L994.06 718.09L994.11 712.29L988.89 715.43L986.61 711.53L991.78 708.73L986.61 705.88L988.89 701.99L994.11 705.12L994.06 699.33L998.53 699.33L998.43 705.12L1003.66 701.99L1005.99 705.88L1000.81 708.73Z" />
						<path id="&lt;Compound Path&gt;" class="shp2" d="M1022.37 708.73L1027.55 711.53L1025.22 715.43L1020 712.34L1020.09 718.09L1015.63 718.09L1015.67 712.29L1010.45 715.43L1008.17 711.53L1013.35 708.73L1008.17 705.88L1010.45 701.99L1015.67 705.12L1015.63 699.33L1020.09 699.33L1020 705.12L1025.22 701.99L1027.55 705.88L1022.37 708.73Z" />
						<path id="&lt;Compound Path&gt;" class="shp2" d="M1043.93 708.73L1049.11 711.53L1046.78 715.43L1041.56 712.34L1041.65 718.09L1037.19 718.09L1037.24 712.29L1032.01 715.43L1029.73 711.53L1034.91 708.73L1029.73 705.88L1032.01 701.99L1037.24 705.12L1037.19 699.33L1041.65 699.33L1041.56 705.12L1046.78 701.99L1049.11 705.88L1043.93 708.73Z" />
						<path id="&lt;Compound Path&gt;" class="shp2" d="M1065.49 708.73L1070.67 711.53L1068.34 715.43L1063.12 712.34L1063.21 718.09L1058.75 718.09L1058.8 712.29L1053.57 715.43L1051.29 711.53L1056.47 708.73L1051.29 705.88L1053.57 701.99L1058.8 705.12L1058.75 699.33L1063.21 699.33L1063.12 705.12L1068.34 701.99L1070.67 705.88L1065.49 708.73Z" />
						<path id="&lt;Compound Path&gt;" class="shp2" d="M1087.06 708.73L1092.23 711.53L1089.91 715.43L1084.68 712.34L1084.78 718.09L1080.31 718.09L1080.36 712.29L1075.14 715.43L1072.86 711.53L1078.03 708.73L1072.86 705.88L1075.14 701.99L1080.36 705.12L1080.31 699.33L1084.78 699.33L1084.68 705.12L1089.91 701.99L1092.23 705.88L1087.06 708.73Z" />
					</g>
				</g>
				<g id="&lt;Group&gt;" style="mix-blend-mode: soft-light">
					<path id="&lt;Path&gt;" class="shp3" d="M756.13 854.53L580.61 854.53L382.65 239.9L558.17 239.9L756.13 854.53Z" />
					<path id="&lt;Path&gt;" class="shp3" d="M856 854.53L803.6 854.53L605.64 239.9L657.99 239.9L856 854.53Z" />
					<path id="&lt;Path&gt;" class="shp3" d="M1270.41 854.53L1094.9 854.53L896.94 239.9L1072.45 239.9L1270.41 854.53Z" />
					<path id="&lt;Path&gt;" class="shp3" d="M1349.79 791.02L1349.79 795.81C1349.79 819.27 1336 839.55 1316.06 848.93L1119.93 239.9L1172.28 239.9L1349.79 791.02Z" />
				</g>
			</g>
			<g id="&lt;Group&gt;">
				<g id="&lt;Group&gt;">
					<g id="&lt;Group&gt;">
						<path id="&lt;Path&gt;" class="shp1" d="M122.62 452.54L146.55 454.82C148.15 454.97 149.7 454.17 150.5 452.77L152.74 448.89L117.66 445.56L119.13 449.79C119.65 451.31 121.02 452.39 122.62 452.54Z" />
						<path id="&lt;Compound Path&gt;" fill-rule="evenodd" class="shp2" d="M146.93 456.33C146.76 456.33 146.58 456.33 146.41 456.31L122.48 454.03C120.3 453.83 118.43 452.35 117.71 450.28L115.49 443.84L155.2 447.62L151.8 453.52C150.8 455.27 148.93 456.33 146.93 456.33ZM119.84 447.27L120.54 449.3C120.88 450.26 121.75 450.95 122.77 451.05L146.69 453.32C147.69 453.42 148.69 452.91 149.2 452.02L150.27 450.16L119.84 447.27Z" />
					</g>
					<g id="&lt;Group&gt;">
						<g id="&lt;Group&gt;">
							<path id="&lt;Path&gt;" class="shp1" d="M100.86 385L180.65 392.58L177.45 426.18C177.15 429.34 175.73 432.28 173.44 434.48L162.32 445.17C159.54 447.85 155.72 449.17 151.88 448.81L118.52 445.64C114.68 445.27 111.18 443.25 108.95 440.1L100.04 427.5C98.21 424.91 97.37 421.75 97.67 418.59L100.86 385Z" />
							<path id="&lt;Compound Path&gt;" fill-rule="evenodd" class="shp2" d="M153.14 450.37C152.68 450.37 152.21 450.35 151.74 450.3L118.38 447.13C114.09 446.72 110.21 444.48 107.73 440.96L98.82 428.37C96.78 425.48 95.84 421.96 96.18 418.45L99.51 383.36L182.28 391.23L178.95 426.32C178.61 429.83 177.03 433.11 174.48 435.56L163.36 446.25C160.6 448.91 156.93 450.37 153.14 450.37ZM102.22 386.63L99.16 418.73C98.9 421.53 99.64 424.34 101.27 426.63L110.18 439.23C112.16 442.03 115.25 443.82 118.66 444.14L152.02 447.32C155.43 447.64 158.81 446.46 161.28 444.09L172.41 433.4C174.43 431.45 175.69 428.83 175.96 426.04L179.01 393.93L102.22 386.63Z" />
						</g>
						<g id="&lt;Group&gt;">
							<path id="&lt;Path&gt;" class="shp3" d="M66.99 309.07C30.72 243.24 92.17 157.59 166.14 170.86C214.27 177.77 249.54 219.77 248.25 268.17C247.76 288.59 240.56 308.77 227.89 324.81C206.71 352.04 192.94 351.92 186.82 386.41C186.15 390.16 182.71 392.78 178.91 392.42C153.11 393.53 127.57 391.09 102.31 385.14C98.51 384.77 95.62 381.56 95.68 377.74L95.68 377.74C96.16 342.75 83.1 340.46 67.27 309.61C67.18 309.43 67.09 309.25 66.99 309.07Z" />
							<path id="&lt;Compound Path&gt;" fill-rule="evenodd" class="shp2" d="M166.92 394.18C145.18 394.18 123.42 391.64 102.06 386.62C97.57 386.14 94.11 382.25 94.18 377.72C94.5 354.36 88.73 345.96 79.98 333.24C75.79 327.14 71.03 320.21 65.94 310.29L65.67 309.77C48.62 278.81 51.81 240.36 74.01 209.42C96.21 178.48 131.61 163.14 166.41 169.38C215.21 176.39 251.06 218.87 249.75 268.21C249.25 289.04 241.91 309.48 229.07 325.74C222.17 334.61 216.1 340.55 210.74 345.8C199.67 356.64 192.35 363.8 188.29 386.67C187.5 391.13 183.39 394.29 178.88 393.92C174.89 394.09 170.91 394.18 166.92 394.18ZM151.02 171.02C122.4 171.02 94.79 185.6 76.45 211.17C54.93 241.16 51.81 278.4 68.31 308.34L68.61 308.92C73.61 318.67 78.31 325.51 82.46 331.54C91.2 344.26 97.52 353.45 97.18 377.76C97.13 380.77 99.45 383.36 102.45 383.64L102.65 383.68C127.73 389.59 153.36 392.03 178.85 390.92L178.95 390.92L179.05 390.93C182.05 391.21 184.81 389.11 185.34 386.14C189.57 362.33 197.57 354.5 208.64 343.66C213.93 338.48 219.93 332.61 226.71 323.89C239.15 308.12 246.27 288.32 246.75 268.13C248.02 220.32 213.28 179.14 165.93 172.35C160.96 171.45 155.97 171.02 151.02 171.02Z" />
						</g>
						<g id="&lt;Group&gt;">
							<path id="&lt;Compound Path&gt;" fill-rule="evenodd" class="shp2" d="M155.31 392.76L152.33 392.47C152.61 389.54 157.88 335.83 167.59 305.3C160.88 305.61 152.29 304.95 141.31 302.67C137.91 301.97 134.83 301.2 132.04 300.37C132.74 304.64 133.11 309.62 133.01 315.43C132 377.7 130.6 390.03 130.54 390.53L127.56 390.17C127.58 390.05 129.01 377.33 130.01 315.39C130.12 309.02 129.65 303.73 128.82 299.36C113.48 294.19 108.41 287.42 109.11 282.53C109.56 279.33 112.44 277.29 116.11 277.58C120.94 277.97 128.18 282.78 131.39 297.03C134.47 298 137.96 298.92 141.92 299.74C152.91 302.01 161.72 302.67 168.62 302.23C171.29 294.52 174.29 288.66 177.59 286.04C182.42 282.21 186.69 282.85 189.06 284.73C191.89 286.96 192.61 290.97 190.87 294.7C189.65 297.32 185.22 303.63 170.72 305.08C160.96 335.04 155.38 392.03 155.31 392.76ZM184.62 286.22C183.06 286.22 181.27 286.96 179.46 288.39C176.69 290.58 174.13 295.45 171.79 301.94C181.14 300.78 186.32 297.37 188.15 293.43C189.29 290.99 188.91 288.44 187.21 287.09C186.47 286.51 185.59 286.22 184.62 286.22ZM115.43 280.56C113.61 280.56 112.28 281.49 112.07 282.95C111.63 286.1 115.84 291.43 128.03 295.89C125.04 284.69 119.4 280.85 115.88 280.58C115.73 280.56 115.58 280.56 115.43 280.56Z" />
						</g>
						<g id="&lt;Group&gt;">
							<path id="&lt;Path&gt;" class="shp3" d="M183.29 412.39C183.18 412.39 183.08 412.38 182.97 412.36L95.54 392.89C94.73 392.71 94.22 391.91 94.4 391.1C94.58 390.29 95.39 389.79 96.19 389.96L183.62 409.43C184.43 409.61 184.94 410.41 184.76 411.22C184.6 411.92 183.98 412.39 183.29 412.39Z" />
						</g>
						<g id="&lt;Group&gt;">
							<path id="&lt;Path&gt;" class="shp3" d="M182.43 421.51C182.32 421.51 182.21 421.49 182.1 421.47L94.67 402C93.87 401.82 93.36 401.02 93.54 400.21C93.72 399.4 94.52 398.9 95.33 399.07L182.75 418.54C183.56 418.72 184.07 419.52 183.89 420.33C183.73 421.03 183.11 421.51 182.43 421.51Z" />
						</g>
						<g id="&lt;Group&gt;">
							<path id="&lt;Path&gt;" class="shp3" d="M181.56 430.62C181.45 430.62 181.34 430.61 181.23 430.58L93.81 411.11C93 410.93 92.49 410.13 92.67 409.32C92.85 408.51 93.66 408.01 94.46 408.18L181.88 427.65C182.69 427.83 183.2 428.63 183.02 429.44C182.87 430.14 182.25 430.62 181.56 430.62Z" />
						</g>
						<g id="&lt;Group&gt;">
							<path id="&lt;Path&gt;" class="shp3" d="M176.58 438.81C176.47 438.81 176.36 438.8 176.25 438.78L92.94 420.22C92.13 420.04 91.62 419.24 91.8 418.43C91.98 417.62 92.79 417.12 93.59 417.29L176.91 435.85C177.71 436.03 178.22 436.83 178.04 437.64C177.89 438.34 177.27 438.81 176.58 438.81Z" />
						</g>
					</g>
				</g>
				<g id="&lt;Group&gt;">
					<path id="&lt;Path&gt;" class="shp2" d="M295.04 280.77L264.29 277.84L264.58 274.85L295.33 277.78L295.04 280.77Z" />
					<path id="&lt;Path&gt;" class="shp2" d="M255.38 220.3L254.13 217.57L282.23 204.72L283.47 207.45L255.38 220.3Z" />
					<path id="&lt;Path&gt;" class="shp2" d="M218.89 174.92L216.44 173.18L234.35 148.01L236.8 149.75L218.89 174.92Z" />
					<path id="&lt;Path&gt;" class="shp2" d="M164.6 153.87L161.61 153.58L164.53 122.83L167.52 123.11L164.6 153.87Z" />
					<path id="&lt;Path&gt;" class="shp2" d="M104.33 164.03L91.48 135.93L94.21 134.69L107.05 162.78L104.33 164.03Z" />
					<path id="&lt;Path&gt;" class="shp2" d="M59.94 201.72L34.77 183.81L36.51 181.36L61.68 199.27L59.94 201.72Z" />
					<path id="&lt;Path&gt;" class="shp2" d="M40.34 256.55L9.59 253.63L9.87 250.64L40.62 253.56L40.34 256.55Z" />
				</g>
			</g>
			<g id="&lt;Clip Group&gt;" clip-path="url(#cp1)">
				<g id="&lt;Group&gt;">
					<g id="&lt;Group&gt;">
						<g id="&lt;Group&gt;">
							<path id="&lt;Path&gt;" class="shp1" d="M361.74 650.54C362.76 650.78 363.76 651.04 364.74 651.31C365.73 651.59 366.7 651.88 367.66 652.21C370.11 653.02 372.39 653.96 374.5 655.07C374.83 655.24 375.18 655.42 375.51 655.61C375.91 655.84 376.32 656.06 376.71 656.32C377.08 656.54 377.44 656.77 377.8 657.01C377.82 657.01 377.83 657.02 377.85 657.04C378.21 657.28 378.57 657.53 378.93 657.77C381.07 659.33 382.98 661.12 384.61 663.14C384.87 663.44 385.11 663.74 385.33 664.06C386.86 666.13 388.14 668.45 389.11 671.05C389.22 671.3 389.31 671.56 389.4 671.81C389.5 672.1 389.61 672.4 389.7 672.71C389.83 673.09 389.95 673.48 390.06 673.88C390.28 674.71 390.49 675.55 390.67 676.43C390.76 676.82 390.84 677.21 390.9 677.6C390.97 677.99 391.03 678.38 391.09 678.79C391.15 679.19 391.21 679.6 391.26 680.02C393.21 696.38 405.79 704.24 409.83 720.35C410.19 721.72 410.47 723.13 410.68 724.63C414.16 749.48 407.13 753.64 400.77 774.32C398.57 781.48 405.78 806.63 414.6 832.7C417.88 833.36 421.18 833.93 424.33 834.29C431.16 835.15 437.73 835.45 444.03 835.34C456.7 835.21 458.29 776.14 449.86 773.99C445.62 772.96 441.7 771.65 438.16 770.29C437.31 769.93 436.38 769.63 435.61 769.24C434.82 768.85 434.04 768.49 433.24 768.14L431.16 766.99C430.42 766.64 429.96 766.19 429.36 765.83C427.88 764.8 426.75 762.53 425.98 759.02L425.22 756.31L424.83 754.96C424.71 754.48 424.62 753.95 424.5 753.44L423.84 750.41L423.12 747.41L422.52 744.17C422.14 741.98 421.68 739.93 421.35 737.65C420.85 734.8 420.04 727.43 419.02 717.14C418.44 711.31 417.79 704.54 417.09 697.1C415.02 675.11 399.01 658.18 373.63 652.64C370.43 651.97 366.47 651.27 361.74 650.54Z" />
							<path id="&lt;Compound Path&gt;" fill-rule="evenodd" class="shp2" d="M441.67 836.86C435.77 836.86 429.88 836.5 424.15 835.78C421.27 835.45 418.05 834.93 414.3 834.17L413.46 834L413.18 833.18C401.87 799.75 397.34 780.36 399.34 773.88C401.14 768 403.01 763.42 404.66 759.39C408.87 749.1 411.64 742.3 409.2 724.84C409 723.41 408.73 722.07 408.38 720.73C406.57 713.51 402.92 707.89 399.38 702.45C395.19 696 390.86 689.34 389.77 680.19C389.73 679.78 389.67 679.39 389.61 679.01C389.55 678.62 389.5 678.26 389.43 677.89C389.36 677.48 389.29 677.12 389.21 676.77C389.03 675.88 388.83 675.07 388.61 674.28C388.51 673.9 388.41 673.55 388.29 673.22C388.18 672.85 388.09 672.58 387.99 672.33C387.9 672.08 387.82 671.85 387.73 671.62C386.81 669.17 385.6 666.94 384.13 664.95C383.91 664.65 383.7 664.38 383.47 664.11C381.93 662.2 380.11 660.49 378.05 658.99L376.97 658.25C376.63 658.03 376.29 657.82 375.94 657.6C375.53 657.34 375.15 657.13 374.78 656.92C374.45 656.73 374.13 656.56 373.83 656.41C371.8 655.35 369.64 654.44 367.19 653.63C366.24 653.3 365.29 653.03 364.32 652.75C363.38 652.49 362.4 652.24 361.4 652L361.97 649.06C369.02 650.15 373.89 651.16 373.94 651.17C399.73 656.8 416.41 673.91 418.58 696.96C419.29 704.4 419.93 711.16 420.52 716.99C421.62 728.12 422.38 734.79 422.83 737.39C423.03 738.79 423.28 740.07 423.52 741.34C423.69 742.19 423.85 743.05 424 743.92L424.59 747.14L425.97 753.12C426.02 753.34 426.07 753.59 426.12 753.83C426.17 754.09 426.22 754.35 426.28 754.59L427.43 758.62C427.88 760.65 429.02 763.77 430.22 764.6C430.4 764.71 430.64 764.88 430.89 765.06C431.2 765.28 431.47 765.48 431.8 765.63L433.97 766.83C434.66 767.12 435.46 767.49 436.27 767.89C436.73 768.12 437.24 768.31 437.74 768.51C438.08 768.64 438.42 768.77 438.75 768.9C442.68 770.42 446.45 771.61 450.22 772.53C457.29 774.33 457.29 799.48 455.73 812.54C454.64 821.58 451.69 836.76 444.05 836.84C443.25 836.86 442.46 836.86 441.67 836.86ZM415.74 831.4C419.05 832.05 421.92 832.51 424.5 832.8C430.88 833.6 437.44 833.95 444 833.84C447.75 833.8 451.18 825.3 452.75 812.19C455.05 792.95 452.43 776.19 449.49 775.45C445.61 774.5 441.72 773.27 437.62 771.69C437.28 771.54 436.97 771.43 436.67 771.31C436.06 771.08 435.46 770.84 434.93 770.57C434.18 770.2 433.42 769.85 432.65 769.52L430.43 768.3C429.94 768.07 429.52 767.77 429.14 767.49C428.96 767.36 428.78 767.23 428.59 767.12C425.88 765.24 424.65 759.94 424.52 759.34L423.39 755.37C423.3 755.04 423.24 754.74 423.18 754.44C423.14 754.22 423.09 754 423.04 753.78L421.66 747.76L421.04 744.44C420.89 743.57 420.74 742.74 420.58 741.91C420.32 740.59 420.07 739.27 419.87 737.86C419.41 735.23 418.64 728.49 417.53 717.29C416.95 711.45 416.3 704.69 415.6 697.24C413.68 676.93 399.69 661.49 377.83 655.24C377.97 655.33 378.11 655.42 378.25 655.51L378.43 655.51L378.8 655.87L379.76 656.52C382.09 658.21 384.1 660.11 385.78 662.2C386.04 662.5 386.31 662.84 386.56 663.19C388.18 665.38 389.52 667.86 390.52 670.52C390.62 670.76 390.72 671.03 390.81 671.31C390.92 671.61 391.04 671.95 391.14 672.3C391.26 672.62 391.39 673.06 391.51 673.51C391.74 674.34 391.96 675.22 392.14 676.13C392.23 676.52 392.32 676.95 392.38 677.37C392.45 677.73 392.51 678.14 392.58 678.57C392.64 678.99 392.7 679.42 392.75 679.86C393.76 688.29 397.71 694.37 401.9 700.82C405.57 706.46 409.36 712.29 411.28 719.99C411.66 721.42 411.95 722.88 412.17 724.42C414.73 742.68 411.67 750.17 407.44 760.53C405.81 764.5 403.97 769.01 402.2 774.76C400.99 778.7 402.37 791.74 415.74 831.4Z" />
						</g>
						<g id="&lt;Group&gt;">
							<path id="&lt;Path&gt;" class="shp1" d="M220.71 759.25L220.93 762.98L224.83 825.73L226.5 914.74L440.05 901.46C430.67 878.03 422.19 855.11 414.6 832.7C405.78 806.63 398.57 781.48 400.77 774.32C407.13 753.64 414.16 749.48 410.68 724.63C410.47 723.13 410.19 721.72 409.83 720.35C405.79 704.24 393.21 696.38 391.26 680.02C389.22 662.87 378.4 654.38 361.66 650.53C353.14 648.58 343.09 647.81 331.89 647.74C331.18 647.72 330.46 647.72 329.74 647.72C329.25 647.72 328.76 647.73 328.27 647.73C325.26 647.75 322.18 647.8 319.02 647.89C318.73 647.91 318.3 647.94 317.74 647.98C315.76 648.16 311.59 648.58 305.91 649.54C305.8 649.55 305.68 649.57 305.58 649.6C219.87 650.06 217.38 705.91 220.71 759.25Z" />
							<path id="&lt;Compound Path&gt;" fill-rule="evenodd" class="shp2" d="M225.03 916.33L223.33 825.76L219.21 759.34C217.27 728.17 216.92 693.07 237.59 670.95C251.77 655.77 273.96 648.29 305.41 648.1C305.5 648.08 305.59 648.07 305.67 648.06C309.83 647.35 313.85 646.82 317.61 646.48L318.92 646.39C322.03 646.3 325.15 646.25 328.26 646.23C329.45 646.22 330.72 646.21 331.92 646.24C344.2 646.32 354.04 647.24 362 649.07C381 653.44 390.77 663.22 392.75 679.84C393.76 688.29 397.71 694.37 401.9 700.82C405.57 706.46 409.36 712.29 411.28 719.99C411.66 721.42 411.95 722.88 412.17 724.42C414.73 742.68 411.67 750.17 407.44 760.53C405.81 764.5 403.97 769.01 402.2 774.76C400.98 778.73 402.38 791.92 416.02 832.22C427.26 865.41 441.31 900.55 441.45 900.9L442.22 902.83L225.03 916.33ZM329.74 649.22C329.26 649.22 328.78 649.23 328.29 649.23C325.19 649.25 322.09 649.3 319.06 649.39L317.85 649.47C314.2 649.81 310.25 650.33 306.16 651.02L305.59 651.1C274.92 651.26 253.39 658.43 239.78 673C219.93 694.24 220.3 728.61 222.21 759.15L222.21 759.16L222.43 762.89L226.33 825.63L227.97 913.14L437.9 900.09C434.8 892.28 422.94 862 413.18 833.18C401.87 799.75 397.34 780.36 399.34 773.88C401.14 768 403.01 763.42 404.66 759.39C408.87 749.1 411.64 742.3 409.2 724.84C409 723.41 408.73 722.07 408.38 720.73C406.57 713.51 402.92 707.89 399.38 702.45C395.19 696 390.86 689.34 389.77 680.19C387.96 665 378.92 656.04 361.33 651.99C353.59 650.22 343.96 649.32 331.88 649.24C331.16 649.22 330.45 649.22 329.74 649.22Z" />
						</g>
						<g id="&lt;Group&gt;">
							<g id="&lt;Group&gt;">
								<path id="&lt;Path&gt;" class="shp3" d="M301.16 604.12L356.41 613.62L349.08 634.54L349.05 634.61L347.03 640.38L345.1 645.92L344.7 647.06L342.44 652.09C341 657.86 334.49 660.75 322.89 660.75C311.3 660.75 303.44 657.92 299.31 652.24L301.16 604.12Z" />
								<path id="&lt;Compound Path&gt;" fill-rule="evenodd" class="shp2" d="M322.89 662.25C304.94 662.25 298.37 653.5 298.1 653.12L297.8 652.7L299.73 602.35L358.41 612.44L346.11 647.56L343.85 652.61C343.44 653.92 340.18 662.25 322.89 662.25ZM300.84 651.72C302.24 653.27 308.63 659.25 322.89 659.25C338.71 659.25 340.9 652.02 340.99 651.71L341.07 651.48L343.33 646.45L354.4 614.79L302.59 605.89L300.84 651.72Z" />
							</g>
							<g id="&lt;Group&gt;">
								<path id="&lt;Path&gt;" class="shp3" d="M299.39 587.21C298.17 613.17 312.45 634.59 337.34 642.02C356.41 647.71 371.13 639.72 393.37 591.62C404.28 568.04 374.54 543.64 348.58 542.43C322.63 541.21 300.6 561.26 299.39 587.21Z" />
								<path id="&lt;Compound Path&gt;" fill-rule="evenodd" class="shp2" d="M347.27 645.15C343.89 645.15 340.47 644.52 336.92 643.46C311.57 635.9 296.61 614.32 297.89 587.14C299.14 560.41 321.91 539.69 348.65 540.93C365.79 541.73 384.26 552.27 392.59 565.99C397.89 574.73 398.63 583.81 394.73 592.25C375.81 633.16 361.99 645.15 347.27 645.15ZM300.88 587.28C299.68 613.01 313.81 633.44 337.77 640.58C355.2 645.78 369.66 639.33 392.01 590.99C396.38 581.53 393.34 573.02 390.02 567.54C382.18 554.62 364.72 544.68 348.51 543.92C323.43 542.73 302.06 562.2 300.88 587.28Z" />
							</g>
							<path id="&lt;Path&gt;" class="shp2" d="M340.55 655.16C341.37 654.48 342 653.46 342.44 652.09C342.92 650.6 344.22 647.75 346.35 643.55C326.46 641.21 314.2 633.4 309.57 620.11C306.03 636.47 316.36 648.16 340.55 655.16Z" />
							<path id="&lt;Path&gt;" class="shp2" d="M298.62 576.16C337.69 589.16 367.71 585.18 388.67 564.22C375.35 579.36 364.07 586.12 354.85 584.5C367.93 588.56 379.2 583.15 388.67 568.28C391.3 581.96 396.01 590.2 402.81 592.99C409.03 554.88 395.72 533.46 362.89 528.73C313.64 521.63 301 553.61 298.62 576.16Z" />
							<path id="&lt;Path&gt;" class="shp2" d="M403.42 586.38C401.95 603.51 397.68 614.75 390.62 620.11C383.56 625.46 379.63 629.57 378.83 632.43C378.38 629.14 380.55 620.95 385.34 607.87C392.52 588.25 387.1 572.51 388.67 564.22C390.24 555.93 404.99 576.26 403.42 586.38Z" />
							<path id="&lt;Path&gt;" class="shp2" d="M356.41 580.46C353.61 581.85 347.14 583.18 337 584.45C321.79 586.35 323.12 597.38 323.4 601.56C323.69 605.75 318.17 595.1 323.4 584.07C326.89 576.72 328.36 571.65 327.82 568.86L356.41 580.46Z" />
							<path id="&lt;Path&gt;" class="shp2" d="M327.82 580.27C316.72 583.94 311.16 592.46 311.15 605.84C311.14 625.9 324.57 664.69 309.3 672.68C316.81 664.56 316.27 653.92 307.68 640.73C294.79 620.96 292.15 581.33 303.85 555.52C311.65 538.32 319.65 546.56 327.82 580.27Z" />
							<path id="&lt;Path&gt;" class="shp2" d="M327.82 531.55C331.15 518.14 322.93 510.3 303.16 508.01C273.49 504.59 277.3 577.23 256.38 580.27C257.72 588.25 264.82 586.47 277.68 574.94C296.97 557.65 301.25 525.51 318.37 535.77C329.78 542.62 332.93 541.21 327.82 531.55Z" />
						</g>
						<path id="&lt;Path&gt;" class="shp2" d="M290.91 738.87C294.55 777.55 314.9 805.14 351.95 821.63C322.96 816.93 304.35 805.84 296.14 788.38C287.92 770.93 286.18 754.42 290.91 738.87Z" />
						<g id="&lt;Group&gt;">
							<path id="&lt;Path&gt;" class="shp2" d="M346.75 859.9L345.41 859.82C341.93 859.62 259.78 854.37 235.83 807.5C212.05 760.95 221.05 705.36 221.14 704.81L224.1 705.31C224.01 705.85 215.18 760.48 238.5 806.13C260.05 848.31 333.45 855.84 344.26 856.73L350.2 822.92C343.27 821.93 315.98 816.81 299.55 796.1C289.31 783.2 285.39 766.79 287.9 747.3L290.88 747.68C288.48 766.33 292.18 781.98 301.88 794.22C319.62 816.58 351.78 820.1 352.1 820.13L353.71 820.3L346.75 859.9Z" />
						</g>
						<path id="&lt;Path&gt;" class="shp2" d="M345.5 858.32C270.71 868.97 229.79 853.49 222.72 811.89C220.27 764.48 219.64 741.03 220.84 741.54C222.24 742.15 222.02 811.01 264.32 834.65C292.53 850.42 319.59 858.31 345.5 858.32Z" />
					</g>
					<g id="&lt;Group&gt;">
						<g id="&lt;Group&gt;">
							<path id="&lt;Path&gt;" class="shp3" d="M428.97 858.38L345.5 858.32C347.25 858.32 348.85 858.92 350.01 859.9C351.17 860.87 351.88 862.2 351.88 863.68C351.88 866.64 349 869.05 345.49 869.05L517.14 869.16C520.65 869.17 523.53 866.75 523.53 863.8C523.53 862.31 522.8 860.98 521.66 860.02C520.5 859.04 518.92 858.44 517.15 858.44L428.97 858.38Z" />
							<path id="&lt;Compound Path&gt;" fill-rule="evenodd" class="shp2" d="M517.15 870.66C517.15 870.66 517.15 870.66 517.14 870.66L345.49 870.55C345.49 870.55 345.49 870.55 345.49 870.55L345.5 867.55C345.5 867.55 345.5 867.55 345.5 867.55C346.84 867.55 348.1 867.12 349.04 866.33C349.9 865.6 350.38 864.66 350.38 863.68C350.38 862.7 349.91 861.77 349.05 861.06C348.11 860.26 346.85 859.82 345.51 859.82L345.5 859.82L345.5 856.82C345.5 856.82 345.5 856.82 345.5 856.82L517.15 856.94C519.21 856.94 521.15 857.62 522.63 858.87C524.18 860.18 525.03 861.93 525.03 863.8C525.03 865.68 524.17 867.43 522.62 868.74C521.14 869.98 519.2 870.66 517.15 870.66ZM352.01 867.55L517.14 867.66C517.15 867.66 517.15 867.66 517.15 867.66C518.49 867.66 519.75 867.23 520.69 866.44C521.55 865.71 522.03 864.77 522.03 863.79C522.03 862.82 521.56 861.89 520.69 861.16C519.76 860.37 518.5 859.94 517.15 859.94L352.03 859.83C352.91 860.95 353.38 862.28 353.38 863.68C353.38 865.09 352.9 866.42 352.01 867.55Z" />
						</g>
						<g id="&lt;Group&gt;">
							<path id="&lt;Path&gt;" class="shp3" d="M251.93 858.26C248.97 858.26 246.56 860.66 246.55 863.61C246.55 865.1 247.15 866.43 248.13 867.41C249.11 868.37 250.45 868.99 251.92 868.99L346.58 869.05C349.53 869.05 351.95 866.64 351.95 863.68C351.95 862.2 351.36 860.87 350.38 859.9C349.4 858.92 348.05 858.32 346.58 858.32L253.92 858.26L251.93 858.26Z" />
							<path id="&lt;Compound Path&gt;" fill-rule="evenodd" class="shp2" d="M346.58 870.55C346.58 870.55 346.58 870.55 346.58 870.55L251.92 870.49C250.11 870.49 248.39 869.77 247.07 868.48C245.77 867.17 245.05 865.44 245.05 863.61C245.05 861.78 245.77 860.06 247.08 858.77C248.38 857.47 250.1 856.76 251.93 856.76C251.93 856.76 251.93 856.76 251.93 856.76L346.58 856.82C348.42 856.82 350.14 857.54 351.44 858.84C352.74 860.12 353.45 861.84 353.45 863.68C353.45 865.51 352.73 867.24 351.43 868.54C350.13 869.84 348.41 870.55 346.58 870.55ZM251.93 859.76C250.9 859.76 249.93 860.16 249.19 860.89C248.46 861.62 248.05 862.59 248.05 863.61C248.05 864.64 248.46 865.62 249.19 866.35C249.93 867.08 250.9 867.49 251.92 867.49L346.58 867.55C346.58 867.55 346.58 867.55 346.58 867.55C347.61 867.55 348.58 867.15 349.31 866.41C350.05 865.68 350.45 864.71 350.45 863.68C350.45 862.65 350.05 861.69 349.33 860.97C348.58 860.23 347.61 859.82 346.58 859.82L251.93 859.76C251.93 859.76 251.93 859.76 251.93 859.76Z" />
						</g>
						<g id="&lt;Group&gt;">
							<path id="&lt;Path&gt;" class="shp1" d="M340.92 855.51C342.37 857.29 344.5 858.32 346.79 858.32L353.56 858.32C351.27 858.32 349.14 857.29 347.69 855.52C346.24 853.72 345.69 851.44 346.17 849.19L368.66 742.03C369.4 738.54 372.53 736 376.1 736.01L369.33 736C365.76 736 362.64 738.53 361.89 742.02L339.4 849.18C338.92 851.43 339.47 853.72 340.92 855.51Z" />
							<path id="&lt;Compound Path&gt;" fill-rule="evenodd" class="shp2" d="M353.56 859.82L346.79 859.82C344.06 859.82 341.5 858.59 339.76 856.46L339.75 856.45C338.03 854.32 337.36 851.55 337.93 848.87L360.42 741.71C361.32 737.53 365.06 734.5 369.32 734.5C369.33 734.5 369.33 734.5 369.33 734.5L376.1 734.51C376.1 734.51 376.1 734.51 376.1 734.51L376.09 737.51C376.09 737.51 376.09 737.51 376.09 737.51C373.23 737.51 370.72 739.54 370.12 742.34L347.63 849.49C347.25 851.29 347.7 853.14 348.86 854.57C350.02 856 351.74 856.82 353.56 856.82L353.56 859.82ZM342.09 854.57C343.25 856 344.97 856.82 346.79 856.82L346.83 856.82C346.73 856.7 346.63 856.59 346.53 856.46C344.79 854.32 344.13 851.56 344.7 848.88L367.19 741.72C367.53 740.11 368.3 738.66 369.36 737.5C369.36 737.5 369.32 737.5 369.32 737.5C366.46 737.5 363.96 739.53 363.36 742.34L340.87 849.49C340.49 851.29 340.93 853.13 342.09 854.57Z" />
						</g>
						<g id="&lt;Group&gt;">
							<path id="&lt;Path&gt;" class="shp3" d="M347.69 855.52C349.14 857.29 351.27 858.32 353.56 858.32L516.46 858.43C520.02 858.43 523.15 855.9 523.89 852.41L546.38 745.25C546.84 743 546.29 740.71 544.84 738.92C543.42 737.15 541.26 736.12 538.98 736.12L376.1 736.01C372.53 736 369.4 738.54 368.66 742.03L346.17 849.19C345.69 851.44 346.24 853.72 347.69 855.52Z" />
							<path id="&lt;Compound Path&gt;" fill-rule="evenodd" class="shp2" d="M516.46 859.93C516.46 859.93 516.46 859.93 516.46 859.93L353.56 859.82C350.83 859.82 348.27 858.6 346.53 856.46L346.52 856.46C344.79 854.32 344.13 851.56 344.7 848.88L367.19 741.72C368.08 737.54 371.83 734.51 376.09 734.51C376.09 734.51 376.09 734.51 376.1 734.51L538.98 734.62C541.73 734.62 544.29 735.84 546.01 737.98C547.73 740.11 548.4 742.87 547.86 745.55L525.36 852.72C524.47 856.9 520.72 859.93 516.46 859.93ZM348.85 854.57C350.02 856 351.74 856.82 353.56 856.82L516.46 856.93C516.46 856.93 516.46 856.93 516.46 856.93C519.32 856.93 521.83 854.9 522.43 852.1L544.92 744.94C545.28 743.15 544.83 741.29 543.68 739.86C542.53 738.44 540.81 737.62 538.97 737.62L376.1 737.51C376.09 737.51 376.09 737.51 376.09 737.51C373.23 737.51 370.72 739.54 370.12 742.34L347.63 849.49C347.25 851.29 347.7 853.14 348.85 854.57Z" />
						</g>
						<g id="&lt;Group&gt;">
							<path id="&lt;Path&gt;" class="shp1" d="M437.44 797.21C437.43 802.09 441.39 806.05 446.27 806.05C451.14 806.06 455.1 802.1 455.11 797.23C455.11 792.35 451.16 788.39 446.28 788.38C441.4 788.38 437.44 792.33 437.44 797.21Z" />
							<path id="&lt;Compound Path&gt;" fill-rule="evenodd" class="shp2" d="M446.27 807.55C446.27 807.55 446.27 807.55 446.26 807.55C443.5 807.55 440.91 806.48 438.96 804.52C437.01 802.57 435.94 799.97 435.94 797.21C435.94 794.45 437.01 791.86 438.97 789.91C440.92 787.96 443.51 786.88 446.27 786.88C446.27 786.88 446.28 786.88 446.28 786.88C449.04 786.89 451.63 787.96 453.58 789.92C455.53 791.87 456.61 794.46 456.61 797.23C456.6 802.92 451.96 807.55 446.27 807.55ZM446.27 789.88C442.23 789.88 438.94 793.17 438.94 797.21C438.93 801.26 442.22 804.55 446.27 804.55C446.27 804.55 446.27 804.55 446.27 804.55C450.31 804.55 453.6 801.27 453.61 797.22C453.61 793.18 450.32 789.89 446.28 789.88C446.27 789.88 446.27 789.88 446.27 789.88Z" />
						</g>
					</g>
					<g id="&lt;Group&gt;">
						<g id="&lt;Group&gt;">
							<g id="&lt;Group&gt;">
								<path id="&lt;Path&gt;" class="shp3" d="M529.19 1148.68C531.52 1162.68 534.85 1169.85 539.18 1170.18L468.35 1170.18L467.4 1148.68L529.19 1148.68Z" />
								<path id="&lt;Compound Path&gt;" fill-rule="evenodd" class="shp2" d="M539.18 1171.68L466.92 1171.68L465.83 1147.18L530.46 1147.18L530.67 1148.44C532.05 1156.67 535.63 1168.4 539.3 1168.69L539.18 1171.68ZM469.79 1168.68L534.51 1168.68C530.77 1163.79 528.68 1154.24 527.93 1150.18L468.97 1150.18L469.79 1168.68Z" />
							</g>
							<g id="&lt;Group&gt;">
								<path id="&lt;Path&gt;" class="shp1" d="M560.71 1175.62L543.65 1171.31C540.08 1170.4 536.98 1168.16 535.01 1165.04L531 1156.7L502.58 1169.9L467.81 1158.05L468.08 1164.01L486.61 1169.9L468.12 1169.9C465.03 1169.9 462.52 1172.4 462.52 1175.49L462.52 1184C462.52 1187.29 465.19 1189.96 468.48 1189.96L489.65 1189.96L494.83 1182.1L504.86 1189.96L571.42 1189.96C572.73 1189.96 573.66 1188.68 573.27 1187.43C571.4 1181.59 566.65 1177.13 560.71 1175.62Z" />
								<path id="&lt;Compound Path&gt;" fill-rule="evenodd" class="shp2" d="M571.42 1191.46L504.34 1191.46L495.19 1184.28L490.46 1191.46L468.48 1191.46C464.37 1191.46 461.02 1188.11 461.02 1184L461.02 1175.49C461.02 1171.58 464.2 1168.4 468.12 1168.4L476.92 1168.4L466.63 1165.13L466.22 1155.92L502.49 1168.28L531.71 1154.72L536.32 1164.31C538.1 1167.08 540.83 1169.04 544.02 1169.85L561.08 1174.17C567.57 1175.81 572.66 1180.6 574.69 1186.98C575.03 1188.03 574.85 1189.16 574.2 1190.05C573.54 1190.95 572.53 1191.46 571.42 1191.46ZM505.38 1188.46L571.42 1188.46C571.61 1188.46 571.72 1188.35 571.77 1188.28C571.82 1188.21 571.9 1188.07 571.84 1187.89C570.12 1182.51 565.82 1178.46 560.34 1177.08L543.28 1172.76C539.32 1171.76 535.93 1169.3 533.74 1165.85L533.66 1165.69L530.29 1158.68L502.66 1171.51L469.41 1160.18L469.53 1162.9L496.29 1171.4L468.12 1171.4C465.86 1171.4 464.02 1173.23 464.02 1175.49L464.02 1184C464.02 1186.46 466.02 1188.46 468.48 1188.46L488.84 1188.46L494.48 1179.92L505.38 1188.46Z" />
							</g>
						</g>
						<g id="&lt;Group&gt;">
							<path id="&lt;Path&gt;" class="shp3" d="M499.61 986.3L534.09 1148.68L464.1 1148.68L407.42 977.1C420.96 970.92 437.3 963.77 456.42 955.66C485.09 943.49 492.32 968.28 499.61 986.3Z" />
							<path id="&lt;Compound Path&gt;" fill-rule="evenodd" class="shp2" d="M535.94 1150.18L463.02 1150.18L405.57 976.29L406.79 975.73C407 975.64 427.46 966.31 455.83 954.28C464.87 950.44 472.38 949.89 478.81 952.58C489.73 957.17 494.9 970.28 499.45 981.86C499.97 983.18 500.48 984.48 501 985.74L501.07 985.99L535.94 1150.18ZM465.19 1147.18L532.23 1147.18L498.17 986.74C497.67 985.51 497.17 984.24 496.66 982.96C492.32 971.94 487.4 959.44 477.65 955.35C472.01 952.98 465.26 953.53 457 957.04C432.61 967.39 414.08 975.73 409.26 977.9L465.19 1147.18Z" />
						</g>
						<g id="&lt;Group&gt;">
							<path id="&lt;Path&gt;" class="shp1" d="M535.79 1135.7L460.07 1135.7C456.5 1135.7 453.58 1138.62 453.58 1142.19C453.58 1145.76 456.5 1148.68 460.07 1148.68L535.79 1148.68C539.36 1148.68 542.28 1145.76 542.28 1142.19C542.28 1138.62 539.36 1135.7 535.79 1135.7Z" />
							<path id="&lt;Compound Path&gt;" fill-rule="evenodd" class="shp2" d="M535.79 1150.18L460.07 1150.18C455.66 1150.18 452.08 1146.6 452.08 1142.19C452.08 1137.79 455.66 1134.2 460.07 1134.2L535.79 1134.2C540.2 1134.2 543.78 1137.79 543.78 1142.19C543.78 1146.6 540.2 1150.18 535.79 1150.18ZM460.07 1137.2C457.32 1137.2 455.08 1139.44 455.08 1142.19C455.08 1144.95 457.32 1147.18 460.07 1147.18L535.79 1147.18C538.55 1147.18 540.78 1144.95 540.78 1142.19C540.78 1139.44 538.55 1137.2 535.79 1137.2L460.07 1137.2Z" />
						</g>
						<path id="&lt;Path&gt;" class="shp2" d="M449.02 958.49L515.37 1060.55L504.59 1009.77L449.02 958.49Z" />
					</g>
					<g id="&lt;Group&gt;">
						<g id="&lt;Group&gt;">
							<path id="&lt;Path&gt;" class="shp1" d="M358.03 1033.17L12.28 1033.17L181.58 971.26L527.33 971.26L358.03 1033.17Z" />
							<path id="&lt;Compound Path&gt;" fill-rule="evenodd" class="shp2" d="M358.3 1034.67L3.81 1034.67L181.32 969.76L535.8 969.76L358.3 1034.67ZM20.75 1031.67L357.77 1031.67L518.86 972.76L181.85 972.76L20.75 1031.67Z" />
						</g>
						<g id="&lt;Group&gt;">
							<path id="&lt;Path&gt;" class="shp2" d="M358.03 1351.73L12.28 1351.73L181.58 1289.82L527.33 1289.82L358.03 1351.73Z" />
							<path id="&lt;Compound Path&gt;" fill-rule="evenodd" class="shp2" d="M358.3 1353.23L3.81 1353.23L181.32 1288.32L535.8 1288.32L358.3 1353.23ZM20.75 1350.23L357.77 1350.23L518.86 1291.32L181.85 1291.32L20.75 1350.23Z" />
						</g>
						<g id="&lt;Group&gt;">
							<path id="&lt;Path&gt;" class="shp3" d="M12.28 1033.17L12.28 1351.73L352.44 1351.73L352.44 1033.17L12.28 1033.17Z" />
							<path id="&lt;Compound Path&gt;" fill-rule="evenodd" class="shp2" d="M353.94 1353.23L10.78 1353.23L10.78 1031.67L353.94 1031.67L353.94 1353.23ZM13.78 1350.23L350.94 1350.23L350.94 1034.67L13.78 1034.67L13.78 1350.23Z" />
						</g>
						<g id="&lt;Group&gt;">
							<path id="&lt;Path&gt;" class="shp0" d="M527.33 971.26L527.33 1289.82L352.44 1351.73L352.44 1033.17L527.33 971.26Z" />
							<path id="&lt;Compound Path&gt;" fill-rule="evenodd" class="shp2" d="M350.94 1353.85L350.94 1032.11L351.94 1031.75L528.83 969.13L528.83 1290.88L527.83 1291.23L350.94 1353.85ZM353.94 1034.23L353.94 1349.61L525.83 1288.76L525.83 973.38L353.94 1034.23Z" />
						</g>
					</g>
					<g id="&lt;Group&gt;">
						<g id="&lt;Group&gt;">
							<g id="&lt;Group&gt;">
								<path id="&lt;Path&gt;" class="shp3" d="M646.26 1051.27C656.66 1062.15 663.76 1066.54 667.56 1064.45L608.39 1103.38L595.77 1085.94L646.26 1051.27Z" />
								<path id="&lt;Compound Path&gt;" fill-rule="evenodd" class="shp2" d="M608.01 1105.42L593.66 1085.57L646.47 1049.32L647.35 1050.24C653.32 1056.48 663.63 1064.91 666.84 1063.13L668.39 1065.7L608.01 1105.42ZM597.89 1086.31L608.76 1101.34L662.87 1065.74C656.77 1063.62 649.13 1056.33 646.07 1053.23L597.89 1086.31Z" />
							</g>
							<g id="&lt;Group&gt;">
								<path id="&lt;Path&gt;" class="shp1" d="M688.53 1057.16L671.91 1062.93C668.43 1064.14 664.61 1063.97 661.25 1062.45L653.32 1057.68L636.82 1084.33L601.27 1093.53L604.77 1098.37L623.48 1093.1L608.03 1103.27C605.45 1104.97 604.73 1108.43 606.43 1111.02L611.11 1118.12C612.92 1120.87 616.61 1121.64 619.36 1119.83L637.05 1108.19L637.06 1098.78L649.75 1099.83L705.36 1063.25C706.46 1062.53 706.53 1060.95 705.52 1060.13C700.75 1056.27 694.33 1055.15 688.53 1057.16Z" />
								<path id="&lt;Compound Path&gt;" fill-rule="evenodd" class="shp2" d="M616.1 1122.31C613.67 1122.31 611.29 1121.13 609.86 1118.95L605.18 1111.84C604.14 1110.26 603.78 1108.36 604.16 1106.51C604.54 1104.65 605.62 1103.05 607.21 1102.01L614.57 1097.17L604.17 1100.1L598.76 1092.63L635.86 1083.03L652.82 1055.63L661.94 1061.11C664.95 1062.45 668.31 1062.59 671.42 1061.51L688.04 1055.74C694.37 1053.55 701.25 1054.75 706.46 1058.96C707.32 1059.66 707.78 1060.69 707.73 1061.8C707.68 1062.91 707.11 1063.89 706.19 1064.5L650.15 1101.37L638.56 1100.41L638.55 1109L620.19 1121.08C618.93 1121.91 617.51 1122.31 616.1 1122.31ZM632.39 1089.04L608.86 1104.52C607.94 1105.12 607.32 1106.04 607.1 1107.11C606.88 1108.18 607.09 1109.28 607.69 1110.19L612.36 1117.3C613.71 1119.35 616.48 1119.93 618.54 1118.57L635.55 1107.38L635.56 1097.15L649.36 1098.29L704.54 1062C704.7 1061.89 704.73 1061.74 704.73 1061.65C704.74 1061.57 704.72 1061.42 704.57 1061.29C700.18 1057.74 694.36 1056.73 689.03 1058.58L689.03 1058.58L672.4 1064.34C668.54 1065.69 664.36 1065.5 660.63 1063.81L660.48 1063.73L653.81 1059.73L637.78 1085.63L603.77 1094.44L605.37 1096.65L632.39 1089.04Z" />
							</g>
						</g>
						<g id="&lt;Group&gt;">
							<path id="&lt;Path&gt;" class="shp3" d="M228.54 942.78L228.55 942.78C236.91 991.08 260.99 1002.89 324.74 995.52C378.02 989.36 419.45 977.02 449.02 958.49L587.78 1086.54L647.12 1044.5C623.2 1014.09 595.62 980.1 564.37 942.53C514.77 882.9 504.16 849.63 410.62 872.05C352.89 885.88 308.49 886.67 266.68 896.21L266.67 896.21C250.59 899.88 237.4 902.99 227.11 905.55C225.97 917.91 226.42 930.56 228.54 942.78Z" />
							<path id="&lt;Compound Path&gt;" fill-rule="evenodd" class="shp2" d="M587.65 1088.46L586.76 1087.64L448.82 960.35C441.79 964.44 397.79 988.59 324.91 997.01C313.57 998.33 303.47 999.02 294.49 999.02C251.92 999.02 234.37 983.45 227.29 944.28L227.29 944.28L227.06 943.04C224.93 930.76 224.45 918.1 225.62 905.42L225.72 904.36L226.75 904.1C226.9 904.06 242.48 900.19 266.33 894.75L266.51 894.71C285.17 890.46 304.48 887.93 324.92 885.25C349.97 881.96 378.36 878.23 410.27 870.59C493.11 850.74 511.65 874.09 548.61 920.62C553.9 927.28 559.36 934.16 565.52 941.57C611.88 997.29 647.94 1043.12 648.29 1043.57L649.27 1044.81L587.65 1088.46ZM449.19 956.61L450.03 957.39L587.9 1084.61L644.96 1044.19C638.89 1036.5 605.3 994.08 563.22 943.49C557.04 936.06 551.56 929.16 546.26 922.49C510.1 876.96 491.95 854.1 410.97 873.51C378.91 881.19 350.43 884.92 325.31 888.22C304.88 890.9 285.59 893.43 267.02 897.67L266.84 897.71C246.59 902.33 232.35 905.81 228.51 906.75C227.53 918.39 227.96 929.99 229.81 941.28L229.81 941.28L230.03 942.53C238.14 989.43 260.23 1001.47 324.57 994.04C403.18 984.95 447.78 957.49 448.22 957.22L449.19 956.61Z" />
						</g>
						<g id="&lt;Group&gt;">
							<path id="&lt;Path&gt;" class="shp3" d="M228.54 942.78L228.55 942.78C261.54 944.88 274.25 929.36 266.68 896.21L266.67 896.21C250.59 899.88 237.4 902.99 227.11 905.55C225.97 917.91 226.42 930.56 228.54 942.78Z" />
							<path id="&lt;Compound Path&gt;" fill-rule="evenodd" class="shp2" d="M232.94 944.43C231.48 944.43 229.99 944.38 228.46 944.28L227.28 944.21L227.06 943.04C224.93 930.76 224.45 918.1 225.62 905.42L225.72 904.36L226.75 904.1C226.9 904.06 242.48 900.19 266.33 894.75L266.67 894.71L267.86 894.71L268.15 895.87C268.36 896.82 273.32 919.29 261.25 933.47C255.06 940.75 245.54 944.43 232.94 944.43ZM229.82 941.35C243.11 941.98 252.89 938.66 258.96 931.53C268.37 920.48 266.35 903.14 265.5 898.01C245.96 902.48 232.27 905.83 228.51 906.75C227.52 918.41 227.96 930.04 229.82 941.35Z" />
						</g>
						<g id="&lt;Group&gt;">
							<path id="&lt;Path&gt;" class="shp1" d="M642.48 1038L581.02 1082.24C578.12 1084.32 577.46 1088.4 579.54 1091.3C581.63 1094.19 585.7 1094.86 588.6 1092.77L650.06 1048.54C652.96 1046.46 653.63 1042.38 651.54 1039.48C649.46 1036.58 645.38 1035.92 642.48 1038Z" />
							<path id="&lt;Compound Path&gt;" fill-rule="evenodd" class="shp2" d="M584.84 1095.49C584.4 1095.49 583.96 1095.45 583.53 1095.38C581.41 1095.04 579.57 1093.9 578.32 1092.17C577.08 1090.44 576.59 1088.33 576.93 1086.22C577.28 1084.11 578.42 1082.26 580.14 1081.02L641.61 1036.79C645.18 1034.21 650.18 1035.03 652.76 1038.61C655.33 1042.18 654.52 1047.18 650.94 1049.76L589.48 1093.99C588.11 1094.97 586.5 1095.49 584.84 1095.49ZM643.36 1039.22L581.89 1083.45C580.82 1084.23 580.11 1085.38 579.89 1086.7C579.68 1088.02 579.98 1089.34 580.76 1090.42C581.53 1091.5 582.69 1092.21 584.01 1092.42C585.33 1092.64 586.65 1092.33 587.72 1091.55L649.19 1047.32C651.42 1045.71 651.93 1042.59 650.32 1040.36C648.72 1038.12 645.59 1037.61 643.36 1039.22Z" />
						</g>
					</g>
				</g>
			</g>
		</g>
	</g>
</svg>